<?xml version="1.0" encoding="UTF-8"?>
<svg version="1.1" xmlns="http://www.w3.org/2000/svg" width="1024" height="1024">
<path d="M0 0 C337.92 0 675.84 0 1024 0 C1024 337.92 1024 675.84 1024 1024 C686.08 1024 348.16 1024 0 1024 C0 686.08 0 348.16 0 0 Z " fill="#000000" transform="translate(0,0)"/>
<path d="M0 0 C0.97610229 -0.0038269 1.95220459 -0.00765381 2.95788574 -0.01159668 C5.01539139 -0.01431074 7.07293184 -0.00698509 9.13037109 0.00976562 C12.27129382 0.03118211 15.40992927 0.00994636 18.55078125 -0.015625 C20.55469253 -0.01298163 22.55860238 -0.00785648 24.5625 0 C25.96429504 -0.01214539 25.96429504 -0.01214539 27.39440918 -0.02453613 C33.02833084 0.05608461 36.32574748 0.74945558 40.78125 4.53125 C44.14737181 8.26127687 45.64846491 10.77184759 46.03125 15.84375 C45.67172335 21.14676801 44.23551199 24.22241421 40.28125 27.78125 C34.92410714 31.53125 34.92410714 31.53125 30.78125 31.53125 C30.80630615 32.75217346 30.8313623 33.97309692 30.85717773 35.23101807 C31.09476416 46.82106964 31.33018058 58.4111636 31.56355286 70.00130081 C31.68355622 75.95775799 31.80428482 81.91419851 31.92675781 87.87060547 C32.04525066 93.63480937 32.16172497 99.39905105 32.27688599 105.16332245 C32.32083435 107.34618291 32.36547119 109.52902964 32.41085815 111.71186066 C32.69329204 125.32184918 32.82505739 138.91810213 32.78125 152.53125 C44.33125 152.53125 55.88125 152.53125 67.78125 152.53125 C67.75804687 149.84097656 67.73484375 147.15070313 67.7109375 144.37890625 C67.53968994 117.55486374 68.00936459 90.77959854 68.78125 63.96875 C68.80516563 63.13777424 68.82908127 62.30679848 68.85372162 61.45064163 C69.15141106 51.14382242 69.46075921 40.83738622 69.78125 30.53125 C68.67048096 30.55469482 67.55971191 30.57813965 66.4152832 30.60229492 C61.73999498 30.51089359 60.45270972 29.27114624 57.2265625 26.16796875 C53.85916064 22.35461367 53.32228173 18.56622664 53.46484375 13.51953125 C54.19101166 8.95632796 57.06732804 6.16018125 60.40625 3.21875 C63.54691702 0.98722344 65.16267298 0.40420226 68.95214844 0.37011719 C70.24424225 0.35570587 70.24424225 0.35570587 71.56243896 0.34100342 C72.96239105 0.3346286 72.96239105 0.3346286 74.390625 0.328125 C75.35019104 0.32242493 76.30975708 0.31672485 77.29840088 0.31085205 C79.33271174 0.30139398 81.36703798 0.29486488 83.40136719 0.29101562 C86.50483217 0.28133243 89.60762867 0.2503258 92.7109375 0.21875 C94.68749607 0.21221771 96.66405937 0.20696813 98.640625 0.203125 C99.56582947 0.1907782 100.49103394 0.1784314 101.4442749 0.16571045 C107.37158953 0.18606327 111.90035315 0.84195674 116.42578125 5.06640625 C120.25899146 10.07906575 121.42125064 13.19050295 120.78125 19.53125 C118.96815252 24.66835953 116.28423859 27.5003923 111.78125 30.53125 C109.45831456 30.93065768 107.12409242 31.27309319 104.78125 31.53125 C104.80630615 32.50144577 104.8313623 33.47164154 104.85717773 34.47123718 C105.09758192 43.80434351 105.3328314 53.13756879 105.56355286 62.47091961 C105.68220127 67.26445122 105.80241166 72.0579309 105.92675781 76.85131836 C106.58004837 102.08889582 106.88156339 127.28362254 106.78125 152.53125 C118.66125 152.53125 130.54125 152.53125 142.78125 152.53125 C142.76964844 149.90800781 142.75804687 147.28476562 142.74609375 144.58203125 C142.68822575 127.84795726 142.66033691 111.13735741 143.35302734 94.41455078 C143.87516901 81.35368092 144.09821265 68.28725399 144.34375 55.21875 C144.36589569 54.0466095 144.38804138 52.87446899 144.41085815 51.66680908 C144.53722359 44.95500787 144.66083456 38.24316056 144.78125 31.53125 C143.67048096 31.39243408 142.55971191 31.25361816 141.4152832 31.1105957 C137.83051822 30.53910445 136.55401144 30.11026819 133.96875 27.71875 C133.12376953 26.96658203 133.12376953 26.96658203 132.26171875 26.19921875 C128.81096136 22.31142612 128.3361784 18.82772982 128.46875 13.7734375 C129.19587646 8.55630512 132.94535015 4.81238352 136.90264893 1.58987427 C140.64431065 -0.51861697 144.73865316 -0.15751648 148.9296875 -0.09765625 C149.90104645 -0.10006821 150.8724054 -0.10248016 151.87319946 -0.10496521 C153.92234387 -0.10398838 155.9715152 -0.09063405 158.02050781 -0.06567383 C161.13959533 -0.03143283 164.25583618 -0.04500758 167.375 -0.06445312 C169.37240778 -0.05755197 171.3698083 -0.04787716 173.3671875 -0.03515625 C174.29139496 -0.04011612 175.21560242 -0.04507599 176.16781616 -0.05018616 C182.10779855 0.05659188 186.87767184 1.0181695 191.78125 4.53125 C195.41641042 8.68191503 196.45470871 12.8493668 196.15625 18.32421875 C195.52748636 22.02475476 194.3530346 24.7737254 191.78125 27.53125 C187.74533871 30.32661479 184.72322028 31.53125 179.78125 31.53125 C179.84976669 32.30164612 179.91828339 33.07204224 179.98887634 33.86578369 C180.69035863 42.25529987 180.98674046 50.59942141 181.09765625 59.015625 C181.11841368 60.38903725 181.1394579 61.76244519 181.1607666 63.135849 C181.21590937 66.7704962 181.26556886 70.40519735 181.31367874 74.0399437 C181.34386582 76.2898826 181.37564795 78.53979359 181.40792847 80.78970337 C181.74989105 104.70609904 181.87289598 128.61164817 181.78125 152.53125 C196.63125 152.53125 211.48125 152.53125 226.78125 152.53125 C226.76964844 148.91542969 226.75804687 145.29960938 226.74609375 141.57421875 C226.65354955 104.54768735 226.72429817 67.51261796 228.78125 30.53125 C226.7894694 30.58414714 224.7976888 30.63704427 222.8059082 30.68994141 C219.47679053 30.42900731 217.98980646 28.9291113 215.78125 26.53125 C212.32703651 21.52859597 211.78215481 16.43244777 212.78125 10.53125 C214.95808257 5.72967691 218.02364127 2.77834526 222.78125 0.53125 C226.15501784 0.08641104 229.50330764 0.11084645 232.90234375 0.1328125 C233.87986099 0.12994232 234.85737823 0.12707214 235.86451721 0.12411499 C237.92799459 0.12207719 239.99149142 0.12758714 242.05493164 0.14013672 C245.20438105 0.15617682 248.35254381 0.14028696 251.50195312 0.12109375 C253.51041949 0.12307657 255.51888505 0.12692105 257.52734375 0.1328125 C258.46501083 0.12673981 259.40267792 0.12066711 260.36875916 0.1144104 C265.58730349 0.17021354 269.28094183 0.59189709 273.78125 3.53125 C278.45179337 8.70671698 279.13909069 11.92729098 279.05859375 18.76953125 C278.6673497 22.66544036 277.42621521 24.67747175 274.78125 27.53125 C270.88835957 30.67869333 268.71968028 31.74850751 263.78125 31.53125 C263.80630615 32.50144577 263.8313623 33.47164154 263.85717773 34.47123718 C264.09758192 43.80434351 264.3328314 53.13756879 264.56355286 62.47091961 C264.68220127 67.26445122 264.80241166 72.0579309 264.92675781 76.85131836 C265.58004837 102.08889582 265.88156339 127.28362254 265.78125 152.53125 C277.66125 152.53125 289.54125 152.53125 301.78125 152.53125 C301.76964844 149.05722656 301.75804687 145.58320312 301.74609375 142.00390625 C301.68357946 117.84197941 301.72199656 93.68886819 302.21875 69.53125 C302.2482222 68.02463303 302.2482222 68.02463303 302.27828979 66.48757935 C302.51212944 54.81110606 302.93113545 43.18042708 303.78125 31.53125 C302.67048096 31.39170898 301.55971191 31.25216797 300.4152832 31.10839844 C295.43183107 30.31693852 293.0868812 28.19424674 289.78125 24.53125 C287.35990054 20.53075958 287.05964373 16.11344982 287.78125 11.53125 C290.10006989 6.98279559 293.28023272 3.05107272 297.78125 0.53125 C301.19612727 -0.16703546 304.52449042 -0.12347385 308 -0.0625 C308.97610229 -0.06254028 309.95220459 -0.06258057 310.95788574 -0.06262207 C313.01544659 -0.05727605 315.07300755 -0.03973275 317.13037109 -0.01074219 C320.27114595 0.03111534 323.40977438 0.03032244 326.55078125 0.0234375 C328.55470233 0.03393091 330.5586124 0.04686983 332.5625 0.0625 C333.49703003 0.06270142 334.43156006 0.06290283 335.39440918 0.06311035 C341.31187597 0.16997266 345.91026487 0.85120925 350.42578125 5.06640625 C354.18056453 9.97650746 355.287342 12.25570924 354.78125 18.53125 C353.01626604 24.46699225 350.03969253 27.59654975 344.78125 30.71875 C342.78125 31.53125 342.78125 31.53125 338.78125 31.53125 C338.80630615 32.61943527 338.8313623 33.70762054 338.85717773 34.82878113 C339.09609539 45.22398682 339.33144831 55.61926831 339.56355286 66.01462841 C339.68290846 71.35541473 339.80340175 76.69616969 339.92675781 82.03686523 C340.46884317 105.54158023 340.90890352 129.01906719 340.78125 152.53125 C352.33125 152.53125 363.88125 152.53125 375.78125 152.53125 C375.76771484 147.82270752 375.76771484 147.82270752 375.75390625 143.01904297 C375.74221385 130.91739165 375.96053023 118.82497761 376.21875 106.7265625 C376.26378712 104.53840532 376.30862363 102.35024401 376.35327148 100.16207886 C376.46965335 94.48400692 376.58870585 88.80599422 376.70837402 83.12799072 C376.83067886 77.30150722 376.95037589 71.47497015 377.0703125 65.6484375 C377.30478373 54.27598872 377.54208505 42.90360098 377.78125 31.53125 C376.8334668 31.39170898 375.88568359 31.25216797 374.90917969 31.10839844 C370.32068325 30.26175423 367.88572002 27.88964764 364.78125 24.53125 C362.36189105 20.53404825 362.05259718 16.11006834 362.78125 11.53125 C365.35414501 6.57604479 368.76358926 3.04008037 373.78125 0.53125 C375.16868153 0.42708059 376.56086813 0.38263129 377.95214844 0.37011719 C379.24424225 0.35570587 379.24424225 0.35570587 380.56243896 0.34100342 C381.96239105 0.3346286 381.96239105 0.3346286 383.390625 0.328125 C384.35019104 0.32242493 385.30975708 0.31672485 386.29840088 0.31085205 C388.33271174 0.30139398 390.36703798 0.29486488 392.40136719 0.29101562 C395.50483217 0.28133243 398.60762867 0.2503258 401.7109375 0.21875 C403.68749607 0.21221771 405.66405937 0.20696813 407.640625 0.203125 C408.56582947 0.1907782 409.49103394 0.1784314 410.4442749 0.16571045 C415.64946023 0.18358367 419.29017837 0.59834091 423.78125 3.53125 C428.20751223 8.43602706 429.13738689 11.44415927 429.0625 17.921875 C428.52047585 22.95065463 426.36709076 26.20257261 422.46875 29.46875 C419.12759326 30.78967243 416.34605761 30.6022954 412.78125 30.53125 C412.84722885 31.54929214 412.9132077 32.56733429 412.98118591 33.6162262 C413.65107711 44.26163978 414.0534941 54.89613051 414.31640625 65.55859375 C414.35966687 67.24321371 414.40308182 68.92782972 414.44664001 70.61244202 C414.53668997 74.1208968 414.62468022 77.62939544 414.71118164 81.13793945 C414.82018683 85.55148765 414.93473232 89.96487179 415.05074501 94.37824059 C415.55770006 113.76755004 415.93065488 133.13406999 415.78125 152.53125 C419.74125 152.53125 423.70125 152.53125 427.78125 152.53125 C427.78125 158.80125 427.78125 165.07125 427.78125 171.53125 C431.41125 171.53125 435.04125 171.53125 438.78125 171.53125 C438.78125 181.10125 438.78125 190.67125 438.78125 200.53125 C284.01125 200.53125 129.24125 200.53125 -30.21875 200.53125 C-30.21875 190.96125 -30.21875 181.39125 -30.21875 171.53125 C-26.58875 171.53125 -22.95875 171.53125 -19.21875 171.53125 C-19.21875 165.26125 -19.21875 158.99125 -19.21875 152.53125 C-15.25875 152.53125 -11.29875 152.53125 -7.21875 152.53125 C-7.22382568 151.51366608 -7.22890137 150.49608215 -7.23413086 149.44766235 C-7.27798165 136.37469471 -7.04617353 123.31203469 -6.78125 110.2421875 C-6.73625549 107.95863137 -6.69141783 105.67507214 -6.64672852 103.39151001 C-6.52991775 97.44377531 -6.41100701 91.49608447 -6.29162598 85.54840088 C-6.16968617 79.4541678 -6.04977789 73.35989476 -5.9296875 67.265625 C-5.69467204 55.3541272 -5.45743322 43.44267483 -5.21875 31.53125 C-6.60513672 31.33789062 -6.60513672 31.33789062 -8.01953125 31.140625 C-12.79557661 30.23090207 -15.84900901 28.03796508 -19.09375 24.46875 C-20.8660395 19.8411052 -20.85829548 15.4176649 -20.21875 10.53125 C-15.91800739 1.43352525 -9.23295884 -0.07999589 0 0 Z " fill="#F6F7F7" transform="translate(308.21875,480.46875)"/>
<path d="M0 0 C0.93812531 0.38499664 1.87625061 0.76999329 2.84280396 1.16665649 C4.88308063 2.00443378 6.92253856 2.8442071 8.96127319 3.68572998 C14.51860486 5.97931548 20.08205754 8.25798308 25.64453125 10.5390625 C26.80093613 11.01376984 27.957341 11.48847717 29.14878845 11.97756958 C41.18232889 16.91428089 53.24406916 21.7802483 65.30859375 26.640625 C82.00748526 33.3712774 98.69029353 40.13994661 115.35888672 46.94528198 C134.81597831 54.88873008 154.2951182 62.77411995 173.80859375 70.578125 C174.90069153 71.01512726 175.99278931 71.45212952 177.11798096 71.90237427 C180.17452247 73.12493855 183.23163762 74.34605304 186.2890625 75.56640625 C187.1956813 75.92881409 188.10230011 76.29122192 189.03639221 76.66461182 C189.86509323 76.99483337 190.69379425 77.32505493 191.54760742 77.6652832 C192.26631516 77.95200394 192.98502289 78.23872467 193.72550964 78.53413391 C195.34036586 79.1572943 196.97899737 79.71825954 198.62109375 80.265625 C198.62109375 84.225625 198.62109375 88.185625 198.62109375 92.265625 C59.03109375 92.265625 -80.55890625 92.265625 -224.37890625 92.265625 C-224.37890625 88.305625 -224.37890625 84.345625 -224.37890625 80.265625 C-222.69450439 79.58685303 -221.01010254 78.90808105 -219.2746582 78.20874023 C-181.31619879 62.91963065 -181.31619879 62.91963065 -143.37890625 47.578125 C-142.68651855 47.29745178 -141.99413086 47.01677856 -141.28076172 46.7276001 C-131.81456092 42.88897176 -122.35551876 39.03291034 -112.8984375 35.171875 C-108.32955815 33.30697037 -103.76053322 31.44242287 -99.19140625 29.578125 C-98.05597382 29.1147876 -96.92054138 28.6514502 -95.7507019 28.17407227 C-76.21110418 20.20361038 -56.63266171 12.33309862 -37.02856445 4.52270508 C-35.5239566 3.92286804 -35.5239566 3.92286804 -33.98895264 3.31091309 C-32.13184267 2.57076995 -30.27440636 1.83144484 -28.41656494 1.09313965 C-27.58824158 0.76309937 -26.75991821 0.43305908 -25.90649414 0.09301758 C-25.13056915 -0.21389008 -24.35464417 -0.52079773 -23.5552063 -0.83700562 C-22.15442598 -1.41459939 -20.76677499 -2.02572906 -19.39865112 -2.6769104 C-12.12304433 -6.1379955 -6.96415016 -2.89062757 0 0 Z " fill="#F7F8F7" transform="translate(525.37890625,347.734375)"/>
<path d="M0 0 C139.59 0 279.18 0 423 0 C423 9.9 423 19.8 423 30 C283.41 30 143.82 30 0 30 C0 20.1 0 10.2 0 0 Z " fill="#F7F8F8" transform="translate(301,446)"/>
<path d="M0 0 C1.251511 0.51863365 1.251511 0.51863365 2.52830505 1.04774475 C4.33260594 1.79699615 6.13472709 2.55151418 7.93484497 3.3107605 C10.84997088 4.5400871 13.77063002 5.75532101 16.69311523 6.96704102 C19.77178287 8.24369978 22.85007696 9.52118695 25.92668152 10.80281067 C35.39772993 14.74788688 44.90162588 18.608497 54.41738892 22.44424438 C57.2294962 23.57779344 60.04096857 24.71290433 62.85229492 25.84838867 C69.28347315 28.44535323 75.71585982 31.03931656 82.1484375 33.6328125 C83.15655739 34.03927505 83.15655739 34.03927505 84.18504333 34.45394897 C105.83796277 43.18407223 127.49266628 51.90976596 149.1484375 60.6328125 C149.1484375 60.9628125 149.1484375 61.2928125 149.1484375 61.6328125 C41.5684375 61.6328125 -66.0115625 61.6328125 -176.8515625 61.6328125 C-175.33093093 58.59154936 -173.05929498 58.33992443 -169.92578125 57.11328125 C-168.97683235 56.73794502 -168.97683235 56.73794502 -168.00871277 56.35502625 C-166.60599669 55.80099683 -165.20203948 55.25010264 -163.79705811 54.70184326 C-160.66495868 53.47905878 -157.53927555 52.24024099 -154.41308594 51.00244141 C-152.68779056 50.31941533 -150.96219419 49.63714917 -149.23632812 48.95556641 C-138.04267488 44.53199228 -126.88543938 40.01821788 -115.7265625 35.5078125 C-114.63368927 35.06637909 -113.54081604 34.62494568 -112.41482544 34.1701355 C-92.82584569 26.25730058 -73.25658419 18.29635049 -53.70278931 10.29696655 C-51.84637108 9.53877819 -49.98894581 8.78305032 -48.13046265 8.02993774 C-43.34845035 6.08781557 -38.59684618 4.09487666 -33.87011719 2.02148438 C-32.88651215 1.5980072 -31.9029071 1.17453003 -30.88949585 0.73822021 C-29.02334966 -0.06651505 -27.16383455 -0.88688886 -25.31289673 -1.72601318 C-15.92109223 -5.73586155 -9.09792695 -3.89475732 0 0 Z " fill="#040404" transform="translate(526.8515625,364.3671875)"/>
<path d="M0 0 C147.84 0 295.68 0 448 0 C448 2.97 448 5.94 448 9 C300.16 9 152.32 9 0 9 C0 6.03 0 3.06 0 0 Z " fill="#101010" transform="translate(289,662)"/>
<path d="M0 0 C140.25 0 280.5 0 425 0 C425 2.97 425 5.94 425 9 C284.75 9 144.5 9 0 9 C0 6.03 0 3.06 0 0 Z " fill="#121212" transform="translate(300,643)"/>
<path d="M0 0 C132.33 0 264.66 0 401 0 C401 2.97 401 5.94 401 9 C268.67 9 136.34 9 0 9 C0 6.03 0 3.06 0 0 Z " fill="#111212" transform="translate(312,456)"/>
<path d="M0 0 C0.66 0 1.32 0 2 0 C2.51046875 1.17755859 2.51046875 1.17755859 3.03125 2.37890625 C8.05320028 13.26425062 13.78827324 18.82155554 25 23 C25 23.66 25 24.32 25 25 C24.21496094 25.3403125 23.42992187 25.680625 22.62109375 26.03125 C11.73574938 31.05320028 6.17844446 36.78827324 2 48 C1.34 48 0.68 48 0 48 C-0.3403125 47.21496094 -0.680625 46.42992187 -1.03125 45.62109375 C-6.05320028 34.73574938 -11.78827324 29.17844446 -23 25 C-23 24.34 -23 23.68 -23 23 C-22.21496094 22.6596875 -21.42992187 22.319375 -20.62109375 21.96875 C-9.73574938 16.94679972 -4.17844446 11.21172676 0 0 Z " fill="#7D7D7D" transform="translate(967,944)"/>
<path d="M0 0 C1.65 0 3.3 0 5 0 C5.26579332 11.11268213 5.52680226 22.22546656 5.78230286 33.33839035 C5.90118139 38.50299186 6.0214869 43.66755046 6.14550781 48.83203125 C6.76214285 74.55959624 7.15985049 100.26468658 7 126 C4.69 126 2.38 126 0 126 C0 84.42 0 42.84 0 0 Z " fill="#1F1F1F" transform="translate(399,507)"/>
<path d="M0 0 C1.32 0 2.64 0 4 0 C4 41.91 4 83.82 4 127 C1.69 127 -0.62 127 -3 127 C-3.05711388 110.78760041 -2.91195701 94.58811689 -2.59765625 78.37890625 C-2.55515265 76.12873951 -2.51270901 73.87857164 -2.47032166 71.62840271 C-2.38201626 66.97399603 -2.29182135 62.31963044 -2.20043945 57.6652832 C-2.0834307 51.68897069 -1.97316552 45.71255302 -1.86443424 39.73608494 C-1.77938837 35.11829543 -1.68995276 30.50059878 -1.59924126 25.8829174 C-1.55659743 23.67602465 -1.51555163 21.46910042 -1.4761219 19.2621479 C-1.42106482 16.20663666 -1.3599002 13.15130816 -1.29711914 10.09594727 C-1.28201294 9.18347229 -1.26690674 8.27099731 -1.25134277 7.33087158 C-1.11416518 1.11416518 -1.11416518 1.11416518 0 0 Z " fill="#1B1B1B" transform="translate(313,506)"/>
<path d="M0 0 C1.65 0 3.3 0 5 0 C5.02332902 16.28070303 5.04097919 32.56140067 5.05181217 48.84211636 C5.05697512 56.40101619 5.0640178 63.95990565 5.07543945 71.51879883 C5.08538632 78.10479666 5.09185343 84.69078698 5.09408849 91.27679211 C5.0953956 94.76613071 5.09848142 98.25544784 5.10573006 101.74477959 C5.11374398 105.63381232 5.11399114 109.52282378 5.11352539 113.41186523 C5.11712067 114.57711227 5.12071594 115.74235931 5.12442017 116.94291687 C5.1230455 117.99606079 5.12167084 119.04920471 5.12025452 120.13426208 C5.12117631 121.05513328 5.1220981 121.97600447 5.12304783 122.92478085 C5 125 5 125 4 126 C2.00041636 126.04080783 -0.00045254 126.04254356 -2 126 C-2.09623687 110.05577093 -2.16920334 94.12311994 -1.5625 78.1875 C-0.93343354 61.6510585 -0.6968957 45.10791636 -0.4375 28.5625 C-0.4263982 27.85734127 -0.4152964 27.15218254 -0.40385818 26.42565536 C-0.26527946 17.61716292 -0.13056935 8.8086151 0 0 Z " fill="#191919" transform="translate(462,507)"/>
<path d="M0 0 C1.65 0 3.3 0 5 0 C5.0236712 10.35724836 5.04118294 20.71448981 5.05181217 31.07176018 C5.05692587 35.88639182 5.06379955 40.70100436 5.07543945 45.515625 C5.13941282 72.69288372 4.78577086 99.83379782 4 127 C2.02 127 0.04 127 -2 127 C-2.23738362 84.65441373 -1.40935708 42.32149752 0 0 Z " fill="#1B1B1B" transform="translate(387,506)"/>
<path d="M0 0 C1.65 0 3.3 0 5 0 C5.01030746 0.72629608 5.02061493 1.45259216 5.03123474 2.20089722 C5.16276299 11.42565736 5.29874472 20.65034616 5.4375 29.875 C5.44852123 30.61016342 5.45954247 31.34532684 5.47089767 32.10276794 C5.72724424 49.15517618 5.98551155 66.2047776 6.5625 83.25 C7.04373037 97.50667499 7.11146301 111.73616388 7 126 C4.69 126 2.38 126 0 126 C0 84.42 0 42.84 0 0 Z " fill="#1D1D1D" transform="translate(633,507)"/>
<path d="M0 0 C1.32 0 2.64 0 4 0 C4 41.58 4 83.16 4 126 C1.69 126 -0.62 126 -3 126 C-2.89067198 116.36540829 -2.77774176 106.73086655 -2.66066074 97.09636593 C-2.60635263 92.61886737 -2.55312031 88.14136235 -2.50268555 83.66381836 C-1.85744524 26.59703505 -1.85744524 26.59703505 0 0 Z " fill="#181818" transform="translate(696,507)"/>
<path d="M0 0 C1.32 0 2.64 0 4 0 C5.18902907 16.89604542 5.31129524 33.812085 5.52606201 50.74194336 C5.56930703 54.13299783 5.61415201 57.52401399 5.66296387 60.91499329 C5.69886195 63.43055944 5.73143818 65.94617635 5.7598877 68.46183777 C5.86655169 75.87604583 6.25299696 83.23374754 6.78060913 90.62950134 C7.03840722 94.59004953 7.11412323 98.49630218 7.09765625 102.46484375 C7.0962413 103.15389297 7.09482635 103.8429422 7.09336853 104.5528717 C7.08792192 106.68113209 7.07540425 108.80927331 7.0625 110.9375 C7.057465 112.41080574 7.0529057 113.88411318 7.04882812 115.35742188 C7.03800377 118.9049844 7.02085455 122.45248052 7 126 C4.69 126 2.38 126 0 126 C0 84.42 0 42.84 0 0 Z " fill="#121212" transform="translate(558,507)"/>
<path d="M0 0 C1.32 0 2.64 0 4 0 C4.34379501 12.58306316 4.67672253 25.16639304 5 37.75 C5.0237545 38.67439251 5.047509 39.59878502 5.07198334 40.55118942 C5.79218916 68.70525907 6.32462376 96.83514339 6 125 C4.02 125 2.04 125 0 125 C0 83.75 0 42.5 0 0 Z " fill="#080808" transform="translate(708,507)"/>
<path d="M0 0 C1.32 0 2.64 0 4 0 C4.34300866 12.95808951 4.67600866 25.91642083 5 38.875 C5.0237545 39.82485905 5.047509 40.77471809 5.07198334 41.75336075 C5.763092 69.50532191 6.34712813 97.23776023 6 125 C4.02 125 2.04 125 0 125 C0 83.75 0 42.5 0 0 Z " fill="#070707" transform="translate(325,507)"/>
<path d="M0 0 C1.32 0 2.64 0 4 0 C4 41.58 4 83.16 4 126 C2.02 126 0.04 126 -2 126 C-2.0728168 107.41251138 -1.88348594 88.83266624 -1.59614182 70.24798965 C-1.56208536 68.03556357 -1.52878154 65.82312717 -1.49563599 63.61068726 C-1.17639894 42.40164503 -0.7821268 21.19789953 0 0 Z " fill="#0A0A0A" transform="translate(546,507)"/>
<path d="M0 0 C1.32 0 2.64 0 4 0 C4 41.58 4 83.16 4 126 C2.02 126 0.04 126 -2 126 C-2.22441367 101.28021078 -1.59232489 76.57119352 -1.07287598 51.85852051 C-0.95027619 45.99816833 -0.83075081 40.13775344 -0.7109375 34.27734375 C-0.47690292 22.85150047 -0.23955449 11.42572879 0 0 Z " fill="#060606" transform="translate(621,507)"/>
<path d="M0 0 C1.32 0 2.64 0 4 0 C4.2627728 13.77054084 4.52368682 27.54111558 4.78230286 41.31173515 C4.90247725 47.70767802 5.0232643 54.10360804 5.14550781 60.49951172 C5.26370936 66.68516462 5.38022804 72.87084725 5.49563599 79.05655289 C5.53969815 81.40294628 5.5843415 83.74932884 5.62960815 86.09569931 C5.88583723 99.39896073 6.06720738 112.69413824 6 126 C4.02 126 2.04 126 0 126 C0 84.42 0 42.84 0 0 Z " fill="#060606" transform="translate(475,507)"/>
<path d="M0 0 C0.83103745 -0.00953201 1.66207489 -0.01906403 2.51829529 -0.02888489 C3.41726028 -0.02797348 4.31622528 -0.02706207 5.24243164 -0.02612305 C6.16472061 -0.03040817 7.08700958 -0.0346933 8.0372467 -0.03910828 C9.98999205 -0.04485738 11.94275881 -0.04534758 13.89550781 -0.04101562 C16.88717124 -0.03785807 19.87784388 -0.06129909 22.86938477 -0.08666992 C24.76456581 -0.08894305 26.65974951 -0.08964635 28.55493164 -0.08862305 C29.45187241 -0.09783279 30.34881317 -0.10704254 31.27293396 -0.11653137 C32.10712357 -0.11030258 32.94131317 -0.10407379 33.80078125 -0.09765625 C34.53421249 -0.09828568 35.26764374 -0.0989151 36.02330017 -0.0995636 C38.5302156 0.38356975 39.41967305 1.27679934 40.96508789 3.2746582 C41.39848929 6.16400085 41.39034573 7.62558044 39.77758789 10.0871582 C37.31601013 11.69991605 35.85443053 11.7080596 32.96508789 11.2746582 C31.15258789 9.8996582 31.15258789 9.8996582 29.96508789 8.2746582 C29.96508789 7.6146582 29.96508789 6.9546582 29.96508789 6.2746582 C21.38508789 6.2746582 12.80508789 6.2746582 3.96508789 6.2746582 C3.63508789 7.5946582 3.30508789 8.9146582 2.96508789 10.2746582 C-0.40991211 10.8996582 -0.40991211 10.8996582 -4.03491211 11.2746582 C-6.03491211 9.2746582 -6.03491211 9.2746582 -6.28491211 5.7746582 C-5.93439476 0.8674153 -4.60440892 0.02895616 0 0 Z " fill="#0F0F0E" transform="translate(687.034912109375,490.725341796875)"/>
<path d="M0 0 C0.83103745 -0.00953201 1.66207489 -0.01906403 2.51829529 -0.02888489 C3.41726028 -0.02797348 4.31622528 -0.02706207 5.24243164 -0.02612305 C6.16472061 -0.03040817 7.08700958 -0.0346933 8.0372467 -0.03910828 C9.98999205 -0.04485738 11.94275881 -0.04534758 13.89550781 -0.04101562 C16.88717124 -0.03785807 19.87784388 -0.06129909 22.86938477 -0.08666992 C24.76456581 -0.08894305 26.65974951 -0.08964635 28.55493164 -0.08862305 C29.45187241 -0.09783279 30.34881317 -0.10704254 31.27293396 -0.11653137 C32.10712357 -0.11030258 32.94131317 -0.10407379 33.80078125 -0.09765625 C34.53421249 -0.09828568 35.26764374 -0.0989151 36.02330017 -0.0995636 C38.56194566 0.38968478 39.47088828 1.18410166 40.96508789 3.2746582 C40.65258789 6.9621582 40.65258789 6.9621582 39.96508789 10.2746582 C36.59008789 10.8996582 36.59008789 10.8996582 32.96508789 11.2746582 C32.30508789 10.6146582 31.64508789 9.9546582 30.96508789 9.2746582 C30.96508789 8.2846582 30.96508789 7.2946582 30.96508789 6.2746582 C22.05508789 6.2746582 13.14508789 6.2746582 3.96508789 6.2746582 C3.30508789 7.5946582 2.64508789 8.9146582 1.96508789 10.2746582 C0.96508789 11.2746582 0.96508789 11.2746582 -1.47241211 11.4621582 C-4.03491211 11.2746582 -4.03491211 11.2746582 -6.03491211 9.2746582 C-6.28491211 5.7746582 -6.28491211 5.7746582 -6.03491211 2.2746582 C-3.67033153 -0.08992238 -3.20777003 0.02017299 0 0 Z " fill="#0F0F0F" transform="translate(612.034912109375,490.725341796875)"/>
<path d="M0 0 C1.21641174 -0.01418472 1.21641174 -0.01418472 2.45739746 -0.02865601 C3.76529236 -0.01954697 3.76529236 -0.01954697 5.09960938 -0.01025391 C6.44762634 -0.01455917 6.44762634 -0.01455917 7.82287598 -0.01895142 C9.72258128 -0.02099256 11.62230758 -0.01545919 13.52197266 -0.00292969 C16.43244347 0.01312339 19.34152558 -0.00277653 22.25195312 -0.02197266 C24.09700828 -0.01999023 25.94206257 -0.01614658 27.78710938 -0.01025391 C28.65903931 -0.0163266 29.53096924 -0.02239929 30.42932129 -0.02865601 C31.24026245 -0.01919952 32.05120361 -0.00974304 32.88671875 0 C33.5993689 0.00238678 34.31201904 0.00477356 35.04626465 0.00723267 C37.54999891 0.51000139 38.46184426 1.32794012 39.94335938 3.38818359 C39.63085938 7.07568359 39.63085938 7.07568359 38.94335938 10.38818359 C36.63335937 10.71818359 34.32335937 11.04818359 31.94335938 11.38818359 C31.28335938 9.73818359 30.62335938 8.08818359 29.94335938 6.38818359 C21.03335937 6.38818359 12.12335938 6.38818359 2.94335938 6.38818359 C2.61335938 7.70818359 2.28335937 9.02818359 1.94335938 10.38818359 C0.94335938 11.38818359 0.94335938 11.38818359 -1.43164062 11.63818359 C-4.05664062 11.38818359 -4.05664062 11.38818359 -5.86914062 10.20068359 C-7.48189847 7.73910583 -7.49004202 6.27752624 -7.05664062 3.38818359 C-4.89759326 0.61351821 -3.474618 0.01163705 0 0 Z " fill="#100F0F" transform="translate(304.056640625,490.61181640625)"/>
<path d="M0 0 C0.83096191 -0.00945648 1.66192383 -0.01891296 2.51806641 -0.02865601 C3.41187012 -0.02258331 4.30567383 -0.01651062 5.2265625 -0.01025391 C6.14743652 -0.01312408 7.06831055 -0.01599426 8.01708984 -0.01895142 C9.96387344 -0.02099272 11.91067752 -0.01545824 13.85742188 -0.00292969 C16.84030949 0.01312303 19.82184211 -0.00277613 22.8046875 -0.02197266 C24.6953155 -0.01999024 26.58594265 -0.01614659 28.4765625 -0.01025391 C29.37036621 -0.0163266 30.26416992 -0.02239929 31.18505859 -0.02865601 C32.43150146 -0.01447128 32.43150146 -0.01447128 33.703125 0 C34.79874756 0.00358017 34.79874756 0.00358017 35.91650391 0.00723267 C38.44683696 0.50537403 39.35955982 1.30360798 40.8515625 3.38818359 C40.5390625 7.07568359 40.5390625 7.07568359 39.8515625 10.38818359 C33.38261175 11.73079601 33.38261175 11.73079601 30.9140625 10.13818359 C29.8515625 8.38818359 29.8515625 8.38818359 29.8515625 5.38818359 C21.2715625 5.38818359 12.6915625 5.38818359 3.8515625 5.38818359 C3.1915625 7.03818359 2.5315625 8.68818359 1.8515625 10.38818359 C0.8515625 11.38818359 0.8515625 11.38818359 -1.5234375 11.63818359 C-4.1484375 11.38818359 -4.1484375 11.38818359 -5.9609375 10.20068359 C-7.57369534 7.73910583 -7.5818389 6.27752624 -7.1484375 3.38818359 C-4.96833531 0.5737445 -3.51321798 0.01148015 0 0 Z " fill="#060606" transform="translate(537.1484375,490.61181640625)"/>
<path d="M0 0 C0.85428589 -0.00630432 1.70857178 -0.01260864 2.58874512 -0.019104 C3.51272095 -0.01505554 4.43669678 -0.01100708 5.38867188 -0.00683594 C6.80895691 -0.00970612 6.80895691 -0.00970612 8.25793457 -0.01263428 C10.26196559 -0.01399667 12.26600542 -0.0102965 14.27001953 -0.00195312 C17.34492741 0.00874559 20.41925101 -0.00184666 23.49414062 -0.01464844 C25.43815234 -0.01332685 27.38216368 -0.01076448 29.32617188 -0.00683594 C30.71213562 -0.01290863 30.71213562 -0.01290863 32.12609863 -0.019104 C33.40752747 -0.00964752 33.40752747 -0.00964752 34.71484375 0 C35.4682605 0.00159119 36.22167725 0.00318237 36.9979248 0.00482178 C38.85742188 0.25878906 38.85742188 0.25878906 40.85742188 2.25878906 C41.10742188 5.75878906 41.10742188 5.75878906 40.85742188 9.25878906 C40.19742188 9.91878906 39.53742188 10.57878906 38.85742188 11.25878906 C35.23242188 10.88378906 35.23242188 10.88378906 31.85742188 10.25878906 C31.36242187 7.78378906 31.36242187 7.78378906 30.85742188 5.25878906 C22.27742188 5.58878906 13.69742187 5.91878906 4.85742188 6.25878906 C4.19742187 7.57878906 3.53742188 8.89878906 2.85742188 10.25878906 C-0.64257812 11.13378906 -0.64257812 11.13378906 -4.14257812 11.25878906 C-6.14257812 9.25878906 -6.14257812 9.25878906 -6.39257812 5.75878906 C-6.03688587 0.77909751 -4.65153305 0.00982385 0 0 Z " fill="#060606" transform="translate(453.142578125,490.7412109375)"/>
<path d="M0 0 C0.83103745 -0.00953201 1.66207489 -0.01906403 2.51829529 -0.02888489 C3.41726028 -0.02797348 4.31622528 -0.02706207 5.24243164 -0.02612305 C6.16472061 -0.03040817 7.08700958 -0.0346933 8.0372467 -0.03910828 C9.98999205 -0.04485738 11.94275881 -0.04534758 13.89550781 -0.04101562 C16.88717124 -0.03785807 19.87784388 -0.06129909 22.86938477 -0.08666992 C24.76456581 -0.08894305 26.65974951 -0.08964635 28.55493164 -0.08862305 C29.45187241 -0.09783279 30.34881317 -0.10704254 31.27293396 -0.11653137 C32.10712357 -0.11030258 32.94131317 -0.10407379 33.80078125 -0.09765625 C34.53421249 -0.09828568 35.26764374 -0.0989151 36.02330017 -0.0995636 C38.54437214 0.386298 39.42923709 1.24641789 40.96508789 3.2746582 C41.34008789 6.3371582 41.34008789 6.3371582 40.96508789 9.2746582 C37.74135112 11.42381605 36.69805115 11.65752623 32.96508789 11.2746582 C32.30508789 10.6146582 31.64508789 9.9546582 30.96508789 9.2746582 C30.96508789 7.9546582 30.96508789 6.6346582 30.96508789 5.2746582 C26.71389749 5.29744201 22.46540167 5.37473086 18.21508789 5.4621582 C17.00852539 5.46795898 15.80196289 5.47375977 14.55883789 5.47973633 C12.81860352 5.52324219 12.81860352 5.52324219 11.04321289 5.56762695 C9.97490234 5.5833374 8.9065918 5.59904785 7.8059082 5.61523438 C4.07716551 6.48076669 3.02735022 8.14863398 0.96508789 11.2746582 C-4.90991211 10.3996582 -4.90991211 10.3996582 -6.03491211 9.2746582 C-6.22241211 5.8371582 -6.22241211 5.8371582 -6.03491211 2.2746582 C-3.67033153 -0.08992238 -3.20777003 0.02017299 0 0 Z " fill="#060606" transform="translate(378.034912109375,490.725341796875)"/>
</svg>
