<svg id="svg" version="1.1" xmlns="http://www.w3.org/2000/svg" xmlns:xlink="http://www.w3.org/1999/xlink" width="400" height="400" viewBox="0, 0, 400,400"><g id="svgg"><path id="path0" d="M0.000 200.000 L 0.000 400.000 200.000 400.000 L 400.000 400.000 400.000 200.000 L 400.000 0.000 200.000 0.000 L 0.000 0.000 0.000 200.000 M210.425 138.065 C 215.971 140.309,228.770 145.506,238.867 149.615 C 248.965 153.724,262.983 159.392,270.020 162.210 L 282.813 167.335 282.813 169.605 L 282.813 171.875 200.195 171.875 L 117.578 171.875 117.589 169.629 L 117.600 167.383 142.664 157.227 C 163.711 148.698,200.014 134.061,200.269 134.002 C 200.310 133.992,204.880 135.820,210.425 138.065 M199.601 140.621 C 199.016 140.948,148.312 161.510,141.309 164.261 C 139.215 165.083,137.603 165.859,137.729 165.984 C 138.005 166.260,263.283 166.292,263.275 166.016 C 263.272 165.908,259.625 164.380,255.170 162.620 C 247.870 159.736,204.915 142.324,201.554 140.887 C 200.735 140.536,199.945 140.429,199.601 140.621 M282.813 180.078 L 282.813 185.938 200.195 185.938 L 117.578 185.938 117.578 180.078 L 117.578 174.219 200.195 174.219 L 282.813 174.219 282.813 180.078 M122.074 179.395 C 122.124 179.878,122.188 180.581,122.216 180.957 C 122.263 181.606,126.265 181.641,200.391 181.641 L 278.516 181.641 278.516 180.078 L 278.516 178.516 200.249 178.516 L 121.982 178.516 122.074 179.395 M135.187 188.779 C 140.136 192.114,138.491 200.000,132.845 200.000 C 132.096 200.000,132.073 200.201,132.254 205.176 C 132.454 210.644,133.203 242.494,133.203 245.500 L 133.203 247.266 139.801 247.266 L 146.399 247.266 146.630 243.066 C 146.757 240.757,146.954 232.715,147.067 225.195 C 147.181 217.676,147.380 208.931,147.509 205.762 L 147.745 200.000 146.875 200.000 C 141.340 200.000,139.577 191.503,144.533 188.718 C 146.440 187.646,162.061 187.442,164.035 188.463 C 169.077 191.070,168.260 198.991,162.860 199.855 L 161.328 200.100 161.340 203.468 C 161.346 205.320,161.514 213.076,161.713 220.703 C 161.911 228.330,162.098 236.943,162.127 239.844 C 162.157 242.744,162.276 245.610,162.393 246.212 L 162.606 247.307 169.291 247.189 L 175.977 247.070 176.219 238.477 C 176.353 233.750,176.589 223.182,176.745 214.992 L 177.028 200.101 175.615 199.836 C 170.062 198.794,169.136 191.105,174.246 188.463 C 176.220 187.442,191.841 187.646,193.748 188.718 C 198.666 191.482,197.464 198.992,191.962 199.885 L 190.557 200.113 190.780 204.842 C 190.903 207.442,191.096 214.580,191.209 220.703 C 191.322 226.826,191.523 235.308,191.656 239.551 L 191.896 247.266 200.221 247.266 L 208.546 247.266 208.748 245.605 C 208.860 244.692,209.049 237.354,209.168 229.297 C 209.288 221.240,209.497 211.353,209.635 207.324 L 209.884 200.000 209.028 200.000 C 203.388 200.000,201.494 191.638,206.486 188.776 C 208.844 187.424,224.582 187.419,226.566 188.770 C 231.446 192.090,229.791 200.000,224.216 200.000 L 223.344 200.000 223.633 213.965 C 223.792 221.646,224.033 232.236,224.168 237.500 L 224.414 247.070 231.250 247.070 L 238.086 247.070 238.333 235.547 C 238.470 229.209,238.701 218.643,238.848 212.067 L 239.114 200.111 237.718 199.884 C 232.247 198.996,231.048 191.467,235.939 188.718 C 238.276 187.404,253.921 187.452,255.890 188.779 C 260.805 192.091,259.134 200.000,253.519 200.000 L 252.615 200.000 252.866 207.910 C 253.004 212.261,253.212 221.445,253.329 228.320 C 253.445 235.195,253.639 242.275,253.759 244.052 L 253.978 247.284 260.485 247.177 L 266.992 247.070 267.234 240.039 C 267.367 236.172,267.611 225.608,267.775 216.563 L 268.075 200.119 266.817 199.867 C 261.508 198.805,260.360 191.482,265.080 188.776 C 266.978 187.688,282.097 187.418,284.517 188.429 C 289.859 190.661,288.941 198.836,283.241 199.798 L 281.836 200.035 282.111 213.006 C 282.262 220.140,282.502 230.767,282.644 236.621 L 282.901 247.266 285.201 247.266 L 287.500 247.266 287.500 250.977 L 287.500 254.688 289.854 254.688 L 292.208 254.688 292.100 260.449 L 291.992 266.211 200.293 266.309 L 108.594 266.408 108.594 260.548 L 108.594 254.688 110.742 254.688 L 112.891 254.688 112.891 250.996 L 112.891 247.305 115.137 247.187 L 117.383 247.070 117.622 237.891 C 117.754 232.842,117.989 222.295,118.143 214.453 L 118.424 200.195 116.565 199.609 C 111.432 197.992,110.678 191.868,115.230 188.770 C 117.238 187.403,133.156 187.410,135.187 188.779 M116.624 192.665 C 115.839 193.786,115.858 194.250,116.731 195.328 C 117.671 196.489,119.406 196.142,119.763 194.721 L 120.007 193.750 125.140 193.752 L 130.273 193.755 130.939 194.924 C 131.982 196.757,134.375 196.244,134.375 194.187 C 134.375 191.958,133.750 191.797,125.089 191.797 C 117.412 191.797,117.218 191.817,116.624 192.665 M145.959 192.511 C 145.144 193.411,145.130 194.684,145.926 195.480 C 146.933 196.487,148.303 196.109,148.848 194.673 C 149.284 193.528,159.766 193.177,159.766 194.308 C 159.766 195.095,160.858 196.094,161.719 196.094 C 163.479 196.094,164.304 193.662,162.958 192.443 C 161.825 191.418,146.894 191.478,145.959 192.511 M175.256 192.511 C 174.040 193.855,174.836 196.094,176.530 196.094 C 177.291 196.094,178.516 194.931,178.516 194.208 C 178.516 193.234,188.812 193.607,189.263 194.597 C 190.225 196.709,192.969 196.398,192.969 194.177 C 192.969 191.906,192.549 191.797,183.822 191.797 C 176.646 191.797,175.842 191.864,175.256 192.511 M208.105 192.219 C 207.261 192.711,207.182 195.017,207.986 195.685 C 208.884 196.430,210.292 196.007,210.857 194.824 L 211.371 193.750 216.437 193.750 C 221.467 193.750,221.506 193.757,221.871 194.716 C 222.641 196.743,225.781 196.124,225.781 193.945 C 225.781 191.983,224.976 191.796,216.571 191.809 C 212.015 191.816,208.506 191.986,208.105 192.219 M237.333 192.411 C 236.462 193.282,236.544 195.192,237.474 195.689 C 238.729 196.361,239.456 196.153,240.155 194.924 L 240.820 193.755 245.996 193.752 C 250.073 193.751,251.172 193.862,251.172 194.275 C 251.172 194.972,252.439 196.094,253.226 196.094 C 254.896 196.094,255.667 193.623,254.364 192.443 C 253.321 191.499,238.273 191.470,237.333 192.411 M266.629 192.411 C 265.653 193.387,265.841 195.250,266.967 195.763 C 268.192 196.321,269.057 195.975,269.527 194.737 L 269.903 193.750 275.143 193.750 C 280.369 193.750,280.385 193.753,280.623 194.701 C 280.936 195.951,282.203 196.327,283.418 195.531 C 284.560 194.783,284.672 193.359,283.661 192.443 C 282.617 191.499,267.570 191.470,266.629 192.411 M122.517 197.955 C 122.324 198.269,121.486 235.358,121.485 243.652 C 121.484 247.198,121.502 247.266,122.415 247.266 L 123.345 247.266 123.615 229.199 C 124.019 202.155,123.799 195.883,122.517 197.955 M127.048 222.363 L 127.148 247.070 128.223 247.194 L 129.297 247.318 129.305 244.655 C 129.336 234.776,128.334 198.550,128.019 198.145 C 127.810 197.876,127.483 197.656,127.293 197.656 C 127.095 197.656,126.990 208.217,127.048 222.363 M185.743 198.101 C 185.631 198.393,185.585 209.512,185.641 222.808 L 185.742 246.983 186.876 247.104 L 188.009 247.225 187.757 237.577 C 187.619 232.271,187.389 221.293,187.247 213.181 C 186.996 198.902,186.674 195.667,185.743 198.101 M213.716 198.516 C 213.527 199.015,213.233 209.265,213.063 221.293 C 212.893 233.322,212.741 244.043,212.725 245.117 C 212.697 246.966,212.753 247.077,213.770 247.194 L 214.844 247.318 214.844 222.705 C 214.844 198.960,214.702 195.923,213.716 198.516 M247.624 197.819 C 247.534 197.908,247.507 209.070,247.564 222.624 L 247.668 247.266 248.893 247.266 L 250.118 247.266 249.867 239.551 C 249.728 235.308,249.503 224.453,249.365 215.430 C 249.112 198.856,248.885 196.559,247.624 197.819 M272.379 198.128 C 272.134 198.438,271.882 204.140,271.729 212.891 C 271.591 220.732,271.364 231.689,271.224 237.239 L 270.970 247.329 272.106 247.200 L 273.242 247.070 273.348 222.684 C 273.448 199.612,273.342 196.913,272.379 198.128 M276.563 222.461 L 276.563 247.266 277.734 247.266 C 279.152 247.266,279.069 250.319,278.467 220.508 C 278.031 198.903,277.945 197.684,276.855 197.662 C 276.694 197.659,276.563 208.818,276.563 222.461 M151.379 198.535 C 151.240 198.966,150.586 236.531,150.586 244.141 C 150.586 247.046,150.595 247.071,151.660 247.194 L 152.734 247.318 152.779 223.756 C 152.803 210.798,152.881 199.712,152.951 199.121 C 153.085 197.988,151.722 197.480,151.379 198.535 M155.991 212.402 C 156.133 220.298,156.249 231.372,156.249 237.012 L 156.250 247.266 157.204 247.266 C 158.565 247.266,158.513 248.230,158.157 229.492 C 157.605 200.387,157.484 198.047,156.535 198.047 C 155.736 198.047,155.734 198.098,155.991 212.402 M180.726 207.129 C 180.588 212.124,180.358 223.198,180.216 231.738 L 179.958 247.266 180.931 247.266 L 181.905 247.266 182.163 234.082 C 182.665 208.429,182.531 198.047,181.700 198.047 C 181.025 198.047,180.961 198.646,180.726 207.129 M217.969 204.428 C 217.969 207.938,218.085 219.021,218.228 229.057 L 218.487 247.305 219.481 247.188 L 220.475 247.070 220.371 239.648 C 220.315 235.566,220.105 225.020,219.907 216.211 C 219.708 207.402,219.542 199.712,219.538 199.121 C 219.533 198.310,219.340 198.047,218.750 198.047 C 218.001 198.047,217.969 198.307,217.969 204.428 M242.831 204.004 C 242.633 208.879,241.992 240.726,241.992 245.703 C 241.992 246.883,242.131 247.086,243.002 247.188 L 244.013 247.305 244.272 230.000 C 244.706 200.930,244.664 198.047,243.802 198.047 C 243.133 198.047,243.054 198.537,242.831 204.004 M117.188 253.124 L 117.188 254.685 200.195 254.678 L 283.203 254.670 283.203 253.116 L 283.203 251.563 200.195 251.563 L 117.188 251.563 117.188 253.124 M112.891 260.449 L 112.891 262.109 200.195 262.109 L 287.500 262.109 287.500 260.449 L 287.500 258.789 200.195 258.789 L 112.891 258.789 112.891 260.449 " stroke="none" fill="#fbfbfb" fill-rule="evenodd"></path><path id="path1" d="M178.125 143.148 C 166.201 147.960,147.832 155.396,137.305 159.672 L 118.164 167.446 118.046 169.465 L 117.928 171.484 200.195 171.484 L 282.463 171.484 282.345 169.451 L 282.227 167.418 271.875 163.252 C 266.182 160.961,252.998 155.615,242.578 151.373 C 210.985 138.511,200.672 134.374,200.228 134.387 C 199.995 134.394,190.049 138.337,178.125 143.148 M223.021 149.383 C 235.389 154.415,249.551 160.144,254.492 162.115 C 259.434 164.086,263.740 165.852,264.063 166.040 C 264.400 166.237,237.378 166.388,200.410 166.394 C 165.079 166.401,136.339 166.260,136.543 166.080 C 136.747 165.901,150.449 160.288,166.992 153.606 C 183.535 146.924,197.686 141.189,198.438 140.861 C 199.189 140.533,199.969 140.258,200.169 140.250 C 200.369 140.241,210.652 144.351,223.021 149.383 M117.969 179.883 L 117.969 185.547 200.195 185.547 L 282.422 185.547 282.422 179.883 L 282.422 174.219 200.195 174.219 L 117.969 174.219 117.969 179.883 M278.516 179.883 L 278.516 181.641 200.195 181.641 L 121.875 181.641 121.875 179.883 L 121.875 178.125 200.195 178.125 L 278.516 178.125 278.516 179.883 M146.201 188.270 C 140.013 189.740,140.439 199.609,146.690 199.609 L 147.780 199.609 147.520 214.941 C 147.377 223.374,147.146 234.097,147.007 238.770 L 146.754 247.266 139.858 247.266 L 132.961 247.266 132.488 225.684 C 131.859 196.993,131.797 199.610,133.105 199.608 C 138.220 199.601,139.835 191.841,135.305 189.036 C 133.620 187.992,117.004 187.880,115.295 188.900 C 110.642 191.677,112.441 199.601,117.726 199.608 L 118.850 199.609 118.610 204.980 C 118.478 207.935,118.276 217.559,118.160 226.367 C 118.044 235.176,117.852 243.481,117.732 244.824 L 117.516 247.266 115.399 247.266 L 113.281 247.266 113.281 250.977 L 113.281 254.688 110.938 254.688 L 108.594 254.688 108.594 260.352 L 108.594 266.016 200.195 266.016 L 291.797 266.016 291.797 260.371 L 291.797 254.726 289.551 254.609 L 287.305 254.492 287.441 251.700 C 287.643 247.575,287.500 247.326,284.843 247.187 L 282.617 247.070 282.372 235.547 C 282.238 229.209,282.003 218.530,281.850 211.816 L 281.573 199.609 282.681 199.608 C 287.588 199.601,289.574 193.030,285.749 189.453 L 284.704 188.477 275.458 188.369 C 266.818 188.269,266.129 188.313,264.960 189.036 C 260.533 191.774,262.296 199.601,267.342 199.608 L 268.473 199.609 268.223 209.082 C 268.086 214.292,267.876 224.443,267.757 231.641 C 267.639 238.838,267.454 245.298,267.347 245.996 L 267.152 247.266 260.334 247.266 L 253.516 247.266 253.514 245.215 C 253.511 241.799,252.781 212.742,252.527 205.957 L 252.290 199.609 253.540 199.609 C 258.846 199.609,260.630 191.735,255.949 188.980 C 254.048 187.861,237.824 187.781,235.951 188.881 C 231.269 191.632,232.510 198.716,237.827 199.587 L 239.258 199.822 239.252 202.352 C 239.238 208.952,238.632 237.866,238.415 242.285 L 238.171 247.266 231.195 247.266 L 224.219 247.266 224.189 245.215 C 224.172 244.087,224.109 242.900,224.049 242.578 C 223.988 242.256,223.824 235.664,223.684 227.930 C 223.544 220.195,223.317 210.659,223.180 206.738 L 222.930 199.609 224.180 199.609 C 229.043 199.609,231.139 193.250,227.419 189.781 L 225.812 188.281 216.714 188.283 C 208.281 188.284,207.523 188.342,206.325 189.072 C 201.882 191.781,203.342 198.742,208.530 199.585 L 209.961 199.818 209.840 206.452 C 209.774 210.101,209.557 220.293,209.358 229.102 C 209.160 237.910,208.994 245.601,208.991 246.191 L 208.984 247.266 200.257 247.266 L 191.530 247.266 191.275 236.230 C 191.135 230.161,190.904 219.438,190.761 212.402 L 190.500 199.609 191.637 199.608 C 196.840 199.601,198.461 191.860,193.856 189.009 C 191.781 187.724,175.825 187.694,173.772 188.971 C 169.361 191.714,170.684 198.819,175.732 199.496 L 177.439 199.725 177.201 206.210 C 177.070 209.777,176.870 219.199,176.755 227.148 C 176.640 235.098,176.447 242.876,176.326 244.434 L 176.105 247.266 169.107 247.266 L 162.109 247.266 162.100 245.801 C 162.096 244.995,161.836 234.492,161.524 222.461 C 161.212 210.430,160.953 200.366,160.947 200.098 C 160.941 199.805,161.447 199.609,162.207 199.608 C 168.318 199.601,168.916 189.949,162.908 188.280 C 161.304 187.834,148.068 187.826,146.201 188.270 M133.736 192.216 C 135.292 193.440,135.092 195.105,133.275 196.063 C 132.235 196.611,130.469 195.763,130.469 194.718 C 130.469 193.540,120.553 193.910,119.762 195.117 C 118.507 197.033,116.016 196.217,116.016 193.889 C 116.016 191.609,116.766 191.406,125.230 191.406 C 132.203 191.406,132.777 191.461,133.736 192.216 M163.130 192.391 C 164.339 193.600,164.232 194.768,162.815 195.821 C 161.653 196.686,159.766 196.003,159.766 194.718 C 159.766 193.530,149.450 193.909,148.899 195.117 C 148.106 196.859,144.922 196.014,144.922 194.062 C 144.922 191.765,146.216 191.406,154.492 191.406 L 162.145 191.406 163.130 192.391 M192.330 192.216 C 193.876 193.432,193.686 195.106,191.895 196.049 C 190.865 196.591,189.708 196.128,189.058 194.913 C 188.508 193.886,178.516 193.701,178.516 194.718 C 178.516 196.003,176.629 196.686,175.466 195.821 C 174.049 194.768,173.942 193.600,175.151 192.391 L 176.136 191.406 183.719 191.406 C 190.798 191.406,191.369 191.460,192.330 192.216 M225.213 192.365 C 226.273 193.425,226.362 193.836,225.772 194.939 C 224.842 196.677,222.221 196.628,221.661 194.863 C 221.295 193.710,211.500 193.766,211.133 194.922 C 210.455 197.058,207.330 196.560,207.108 194.281 C 206.860 191.745,207.986 191.406,216.672 191.406 C 224.201 191.406,224.261 191.413,225.213 192.365 M254.510 192.365 C 255.627 193.482,255.695 194.035,254.861 195.226 C 254.004 196.449,252.167 196.393,251.331 195.117 C 250.540 193.910,240.625 193.540,240.625 194.718 C 240.625 195.763,238.858 196.611,237.819 196.063 C 236.002 195.105,235.802 193.440,237.357 192.216 C 239.082 190.859,253.126 190.981,254.510 192.365 M283.807 192.365 C 284.924 193.482,284.992 194.035,284.158 195.226 C 283.312 196.433,281.532 196.380,280.539 195.117 C 279.616 193.944,269.922 193.544,269.922 194.679 C 269.922 196.137,267.067 196.744,266.144 195.482 C 265.332 194.372,265.531 193.099,266.654 192.216 C 268.379 190.859,282.423 190.981,283.807 192.365 M123.828 222.461 L 123.828 247.266 122.404 247.266 L 120.980 247.266 121.228 239.941 C 121.364 235.913,121.575 225.146,121.697 216.016 C 121.943 197.666,121.943 197.656,123.054 197.656 C 123.818 197.656,123.828 197.996,123.828 222.461 M128.312 198.034 C 128.440 198.241,128.706 205.229,128.903 213.561 C 129.100 221.893,129.379 232.886,129.524 237.988 L 129.787 247.266 128.433 247.266 L 127.080 247.266 126.821 233.139 C 126.325 206.016,126.442 197.656,127.321 197.656 C 127.738 197.656,128.184 197.826,128.312 198.034 M153.125 222.461 L 153.125 247.266 151.758 247.266 L 150.391 247.266 150.392 240.918 C 150.393 231.463,151.177 198.354,151.408 197.980 C 151.518 197.802,151.950 197.656,152.367 197.656 C 153.109 197.656,153.125 198.168,153.125 222.461 M157.862 206.641 C 157.996 211.475,158.240 222.593,158.405 231.348 L 158.704 247.266 157.282 247.266 L 155.859 247.266 155.859 222.434 L 155.859 197.602 156.738 197.727 C 157.612 197.851,157.619 197.908,157.862 206.641 M182.474 198.535 C 182.553 199.019,182.569 210.181,182.511 223.340 L 182.404 247.266 180.986 247.266 L 179.568 247.266 179.820 237.598 C 179.958 232.280,180.175 221.338,180.301 213.281 C 180.428 205.225,180.599 198.413,180.683 198.145 C 180.950 197.286,182.319 197.585,182.474 198.535 M187.151 200.781 C 187.281 202.393,187.504 211.533,187.647 221.094 C 187.790 230.654,188.014 240.454,188.145 242.871 L 188.384 247.266 187.008 247.266 C 185.159 247.266,185.243 248.474,185.190 220.968 L 185.145 197.600 186.029 197.726 C 186.833 197.840,186.936 198.119,187.151 200.781 M215.140 222.363 L 215.039 247.070 213.770 247.193 L 212.500 247.315 212.507 241.529 C 212.520 231.392,213.273 198.376,213.500 198.009 C 213.620 197.815,214.060 197.656,214.479 197.656 C 215.227 197.656,215.238 198.100,215.140 222.363 M219.436 198.145 C 219.753 198.541,220.734 234.664,220.709 245.020 L 220.703 247.266 219.367 247.266 L 218.030 247.266 217.894 222.754 C 217.819 209.272,217.816 198.110,217.886 197.949 C 218.088 197.490,219.005 197.606,219.436 198.145 M244.531 222.461 L 244.531 247.266 243.164 247.266 L 241.797 247.266 241.793 244.824 C 241.785 239.005,242.645 198.587,242.787 198.145 C 242.874 197.876,243.301 197.656,243.738 197.656 C 244.527 197.656,244.531 197.789,244.531 222.461 M248.971 197.963 C 249.135 198.228,249.757 222.188,250.089 241.016 L 250.195 247.070 248.828 247.070 L 247.461 247.070 247.360 222.363 C 247.262 198.100,247.273 197.656,248.021 197.656 C 248.440 197.656,248.867 197.794,248.971 197.963 M273.618 208.013 C 273.610 213.596,273.566 224.712,273.520 232.715 L 273.438 247.266 272.047 247.266 L 270.656 247.266 270.901 239.746 C 271.035 235.610,271.289 224.640,271.465 215.367 C 271.791 198.204,271.850 197.519,272.986 197.738 C 273.569 197.851,273.631 198.867,273.618 208.013 M278.068 198.340 C 278.267 198.716,278.456 202.451,278.489 206.641 C 278.522 210.830,278.713 221.201,278.914 229.688 C 279.115 238.174,279.283 245.601,279.288 246.191 C 279.296 247.157,279.161 247.266,277.951 247.266 L 276.605 247.266 276.469 241.895 C 275.923 220.254,276.160 197.656,276.933 197.656 C 277.359 197.656,277.869 197.964,278.068 198.340 M283.594 252.930 L 283.594 254.688 200.432 254.688 L 117.270 254.688 117.119 253.105 C 117.036 252.234,117.046 251.443,117.143 251.347 C 117.239 251.251,154.730 251.172,200.456 251.172 L 283.594 251.172 283.594 252.930 M287.891 260.352 L 287.891 262.109 200.195 262.109 L 112.500 262.109 112.500 260.352 L 112.500 258.594 200.195 258.594 L 287.891 258.594 287.891 260.352 " stroke="none" fill="#273846" fill-rule="evenodd"></path><path id="path2" d="M150.284 166.298 C 150.978 166.384,152.208 166.385,153.019 166.301 C 153.829 166.216,153.262 166.146,151.758 166.144 C 150.254 166.142,149.591 166.211,150.284 166.298 M174.136 166.305 C 175.488 166.382,177.597 166.381,178.824 166.304 C 180.051 166.227,178.945 166.164,176.367 166.165 C 173.789 166.166,172.785 166.229,174.136 166.305 M185.862 166.308 C 188.506 166.375,192.725 166.375,195.237 166.307 C 197.749 166.239,195.586 166.184,190.430 166.184 C 185.273 166.184,183.218 166.240,185.862 166.308 M202.458 166.306 C 203.917 166.381,206.202 166.380,207.536 166.304 C 208.870 166.228,207.676 166.167,204.883 166.167 C 202.090 166.168,200.999 166.230,202.458 166.306 M225.098 166.308 C 231.704 166.368,242.515 166.368,249.121 166.308 C 255.728 166.248,250.322 166.199,237.109 166.199 C 223.896 166.199,218.491 166.248,225.098 166.308 M159.504 171.777 C 182.241 171.833,219.331 171.833,241.926 171.777 C 264.521 171.722,245.918 171.676,200.586 171.676 C 155.254 171.676,136.767 171.722,159.504 171.777 M136.621 178.418 C 144.624 178.477,157.720 178.477,165.723 178.418 C 173.726 178.359,167.178 178.311,151.172 178.311 C 135.166 178.311,128.618 178.359,136.621 178.418 M200.126 178.418 C 206.963 178.478,218.037 178.478,224.735 178.418 C 231.434 178.358,225.840 178.309,212.305 178.309 C 198.770 178.309,193.289 178.358,200.126 178.418 M248.367 178.418 C 254.022 178.479,263.163 178.479,268.680 178.418 C 274.197 178.357,269.570 178.307,258.398 178.307 C 247.227 178.307,242.713 178.357,248.367 178.418 M287.981 194.141 C 287.981 194.893,288.062 195.200,288.160 194.824 C 288.258 194.448,288.258 193.833,288.160 193.457 C 288.062 193.081,287.981 193.389,287.981 194.141 M185.330 198.158 C 185.224 198.434,185.186 201.730,185.245 205.482 L 185.354 212.305 185.548 204.980 C 185.739 197.793,185.718 197.147,185.330 198.158 M214.843 210.273 L 215.038 222.852 215.142 210.572 C 215.199 203.818,215.111 198.158,214.947 197.994 C 214.783 197.829,214.736 203.355,214.843 210.273 M126.727 205.859 C 126.727 210.264,126.784 212.065,126.854 209.863 C 126.923 207.661,126.923 204.058,126.854 201.855 C 126.784 199.653,126.727 201.455,126.727 205.859 M276.306 200.977 C 276.307 202.695,276.376 203.350,276.458 202.431 C 276.541 201.512,276.540 200.106,276.456 199.306 C 276.372 198.506,276.304 199.258,276.306 200.977 M157.561 201.758 C 157.559 203.691,157.625 204.532,157.707 203.625 C 157.789 202.718,157.790 201.136,157.709 200.109 C 157.629 199.082,157.562 199.824,157.561 201.758 M242.715 201.563 C 242.715 203.389,242.782 204.136,242.864 203.223 C 242.946 202.310,242.946 200.815,242.864 199.902 C 242.782 198.989,242.715 199.736,242.715 201.563 M247.442 212.109 C 247.442 219.736,247.494 222.856,247.558 219.043 C 247.622 215.229,247.622 208.989,247.558 205.176 C 247.494 201.362,247.442 204.482,247.442 212.109 M219.674 202.539 C 219.675 204.688,219.741 205.517,219.820 204.381 C 219.899 203.246,219.898 201.488,219.818 200.475 C 219.738 199.462,219.673 200.391,219.674 202.539 M152.912 214.844 C 152.912 223.115,152.964 226.499,153.027 222.363 C 153.090 218.228,153.090 211.460,153.027 207.324 C 152.964 203.188,152.912 206.572,152.912 214.844 M180.618 204.492 C 180.619 207.070,180.682 208.074,180.758 206.723 C 180.835 205.372,180.834 203.262,180.757 202.035 C 180.680 200.809,180.617 201.914,180.618 204.492 M268.097 202.539 C 268.099 204.043,268.169 204.610,268.254 203.800 C 268.338 202.989,268.337 201.759,268.251 201.066 C 268.164 200.372,268.095 201.035,268.097 202.539 M281.762 202.539 C 281.764 203.828,281.837 204.308,281.924 203.606 C 282.011 202.904,282.009 201.850,281.920 201.263 C 281.831 200.676,281.759 201.250,281.762 202.539 M122.016 205.469 C 122.016 207.510,122.082 208.345,122.162 207.324 C 122.243 206.304,122.243 204.634,122.162 203.613 C 122.082 202.593,122.016 203.428,122.016 205.469 M132.165 206.055 C 132.167 207.773,132.235 208.428,132.318 207.509 C 132.400 206.590,132.399 205.184,132.315 204.384 C 132.231 203.584,132.164 204.336,132.165 206.055 M190.753 207.617 C 190.755 209.121,190.826 209.688,190.910 208.878 C 190.995 208.068,190.993 206.837,190.907 206.144 C 190.821 205.450,190.751 206.113,190.753 207.617 M147.406 209.375 C 147.406 211.416,147.472 212.251,147.553 211.230 C 147.633 210.210,147.633 208.540,147.553 207.520 C 147.472 206.499,147.406 207.334,147.406 209.375 M278.261 210.156 C 278.261 211.982,278.329 212.729,278.411 211.816 C 278.493 210.903,278.493 209.409,278.411 208.496 C 278.329 207.583,278.261 208.330,278.261 210.156 M209.503 211.523 C 209.505 213.027,209.576 213.595,209.660 212.784 C 209.745 211.974,209.743 210.743,209.657 210.050 C 209.571 209.356,209.501 210.020,209.503 211.523 M271.623 212.695 C 271.622 214.629,271.688 215.469,271.770 214.563 C 271.852 213.656,271.853 212.074,271.772 211.047 C 271.691 210.020,271.624 210.762,271.623 212.695 M128.644 212.305 C 128.646 213.809,128.716 214.376,128.801 213.566 C 128.885 212.755,128.884 211.525,128.798 210.831 C 128.711 210.138,128.642 210.801,128.644 212.305 M187.246 212.891 C 187.246 214.717,187.313 215.464,187.395 214.551 C 187.478 213.638,187.478 212.144,187.395 211.230 C 187.313 210.317,187.246 211.064,187.246 212.891 M252.863 212.305 C 252.864 213.809,252.935 214.376,253.019 213.566 C 253.104 212.755,253.103 211.525,253.016 210.831 C 252.930 210.138,252.861 210.801,252.863 212.305 M238.811 213.477 C 238.809 215.410,238.875 216.250,238.957 215.344 C 239.039 214.437,239.040 212.855,238.959 211.828 C 238.879 210.801,238.812 211.543,238.811 213.477 M161.456 214.258 C 161.458 215.762,161.529 216.329,161.613 215.519 C 161.698 214.708,161.696 213.478,161.610 212.784 C 161.524 212.091,161.455 212.754,161.456 214.258 M185.295 215.820 C 185.294 217.754,185.360 218.594,185.442 217.688 C 185.524 216.781,185.525 215.199,185.444 214.172 C 185.363 213.145,185.296 213.887,185.295 215.820 M118.105 216.406 C 118.105 218.232,118.173 218.979,118.255 218.066 C 118.337 217.153,118.337 215.659,118.255 214.746 C 118.173 213.833,118.105 214.580,118.105 216.406 M249.350 216.016 C 249.350 217.627,249.419 218.286,249.503 217.480 C 249.588 216.675,249.588 215.356,249.503 214.551 C 249.419 213.745,249.350 214.404,249.350 216.016 M176.701 216.992 C 176.700 218.926,176.766 219.766,176.848 218.859 C 176.930 217.953,176.931 216.371,176.850 215.344 C 176.769 214.317,176.702 215.059,176.701 216.992 M213.031 217.188 C 213.031 219.229,213.097 220.063,213.178 219.043 C 213.258 218.022,213.258 216.353,213.178 215.332 C 213.097 214.312,213.031 215.146,213.031 217.188 M223.569 216.797 C 223.569 218.408,223.638 219.067,223.722 218.262 C 223.806 217.456,223.806 216.138,223.722 215.332 C 223.638 214.526,223.569 215.186,223.569 216.797 M150.915 217.383 C 150.917 219.102,150.985 219.756,151.068 218.837 C 151.150 217.919,151.149 216.512,151.065 215.712 C 150.981 214.912,150.914 215.664,150.915 217.383 M156.032 228.711 C 156.032 235.156,156.086 237.848,156.151 234.692 C 156.217 231.536,156.217 226.263,156.152 222.973 C 156.086 219.684,156.033 222.266,156.032 228.711 M282.159 219.727 C 282.161 221.230,282.232 221.798,282.316 220.987 C 282.401 220.177,282.399 218.946,282.313 218.253 C 282.227 217.560,282.158 218.223,282.159 219.727 M157.946 220.508 C 157.948 222.227,158.017 222.881,158.099 221.962 C 158.182 221.044,158.180 219.637,158.096 218.837 C 158.013 218.037,157.945 218.789,157.946 220.508 M267.709 220.703 C 267.709 222.314,267.778 222.974,267.863 222.168 C 267.947 221.362,267.947 220.044,267.863 219.238 C 267.778 218.433,267.709 219.092,267.709 220.703 M242.326 222.461 C 242.325 224.395,242.391 225.235,242.473 224.328 C 242.555 223.422,242.556 221.840,242.475 220.813 C 242.394 219.786,242.327 220.527,242.326 222.461 M220.058 222.656 C 220.058 224.482,220.126 225.229,220.208 224.316 C 220.290 223.403,220.290 221.909,220.208 220.996 C 220.126 220.083,220.058 220.830,220.058 222.656 M132.553 222.656 C 132.553 224.268,132.622 224.927,132.706 224.121 C 132.791 223.315,132.791 221.997,132.706 221.191 C 132.622 220.386,132.553 221.045,132.553 222.656 M191.147 223.828 C 191.147 225.439,191.216 226.099,191.300 225.293 C 191.384 224.487,191.384 223.169,191.300 222.363 C 191.216 221.558,191.147 222.217,191.147 223.828 M180.215 225.781 C 180.215 227.607,180.282 228.354,180.364 227.441 C 180.446 226.528,180.446 225.034,180.364 224.121 C 180.282 223.208,180.215 223.955,180.215 225.781 M218.138 232.617 C 218.138 237.988,218.193 240.240,218.260 237.620 C 218.328 235.001,218.328 230.607,218.261 227.855 C 218.194 225.103,218.138 227.246,218.138 232.617 M244.311 234.180 C 244.311 239.766,244.366 241.996,244.433 239.137 C 244.500 236.278,244.499 231.707,244.432 228.981 C 244.365 226.254,244.311 228.594,244.311 234.180 M121.625 228.125 C 121.625 230.166,121.691 231.001,121.771 229.980 C 121.852 228.960,121.852 227.290,121.771 226.270 C 121.691 225.249,121.625 226.084,121.625 228.125 M147.009 227.930 C 147.010 229.648,147.079 230.303,147.162 229.384 C 147.244 228.465,147.243 227.059,147.159 226.259 C 147.075 225.459,147.007 226.211,147.009 227.930 M253.261 228.906 C 253.261 230.732,253.329 231.479,253.411 230.566 C 253.493 229.653,253.493 228.159,253.411 227.246 C 253.329 226.333,253.261 227.080,253.261 228.906 M129.038 229.297 C 129.038 230.908,129.107 231.567,129.191 230.762 C 129.275 229.956,129.275 228.638,129.191 227.832 C 129.107 227.026,129.038 227.686,129.038 229.297 M209.118 229.492 C 209.120 231.211,209.188 231.865,209.271 230.947 C 209.353 230.028,209.352 228.622,209.268 227.822 C 209.184 227.022,209.117 227.773,209.118 229.492 M278.650 230.273 C 278.651 231.992,278.720 232.647,278.802 231.728 C 278.885 230.809,278.884 229.403,278.800 228.603 C 278.716 227.803,278.648 228.555,278.650 230.273 M271.230 231.641 C 271.230 233.467,271.298 234.214,271.380 233.301 C 271.462 232.388,271.462 230.894,271.380 229.980 C 271.298 229.067,271.230 229.814,271.230 231.641 M123.605 238.086 C 123.605 243.027,123.661 244.995,123.729 242.458 C 123.798 239.922,123.797 235.879,123.729 233.474 C 123.660 231.069,123.605 233.145,123.605 238.086 M161.847 231.836 C 161.849 233.340,161.919 233.907,162.004 233.097 C 162.088 232.286,162.087 231.056,162.001 230.362 C 161.914 229.669,161.845 230.332,161.847 231.836 M187.636 232.422 C 187.636 234.248,187.704 234.995,187.786 234.082 C 187.868 233.169,187.868 231.675,187.786 230.762 C 187.704 229.849,187.636 230.596,187.636 232.422 M182.197 237.891 C 182.197 242.510,182.254 244.399,182.323 242.090 C 182.392 239.780,182.392 236.001,182.323 233.691 C 182.254 231.382,182.197 233.271,182.197 237.891 M238.415 232.617 C 238.417 234.336,238.485 234.990,238.568 234.072 C 238.650 233.153,238.649 231.747,238.565 230.947 C 238.481 230.147,238.414 230.898,238.415 232.617 M249.746 234.766 C 249.746 236.592,249.813 237.339,249.895 236.426 C 249.978 235.513,249.978 234.019,249.895 233.105 C 249.813 232.192,249.746 232.939,249.746 234.766 M223.965 235.156 C 223.965 236.982,224.032 237.729,224.114 236.816 C 224.196 235.903,224.196 234.409,224.114 233.496 C 224.032 232.583,223.965 233.330,223.965 235.156 M117.715 235.547 C 117.715 237.373,117.782 238.120,117.864 237.207 C 117.946 236.294,117.946 234.800,117.864 233.887 C 117.782 232.974,117.715 233.721,117.715 235.547 M176.303 236.328 C 176.303 237.939,176.372 238.599,176.456 237.793 C 176.541 236.987,176.541 235.669,176.456 234.863 C 176.372 234.058,176.303 234.717,176.303 236.328 M150.529 237.695 C 150.528 239.629,150.594 240.469,150.676 239.563 C 150.758 238.656,150.759 237.074,150.678 236.047 C 150.597 235.020,150.530 235.762,150.529 237.695 M267.321 238.477 C 267.323 240.195,267.392 240.850,267.474 239.931 C 267.557 239.012,267.555 237.606,267.471 236.806 C 267.388 236.006,267.320 236.758,267.321 238.477 M158.346 240.039 C 158.347 242.188,158.412 243.017,158.492 241.881 C 158.571 240.746,158.570 238.988,158.490 237.975 C 158.410 236.962,158.345 237.891,158.346 240.039 M212.641 239.844 C 212.641 241.885,212.707 242.720,212.787 241.699 C 212.868 240.679,212.868 239.009,212.787 237.988 C 212.707 236.968,212.641 237.803,212.641 239.844 M282.550 239.258 C 282.552 240.762,282.622 241.329,282.707 240.519 C 282.792 239.708,282.790 238.478,282.704 237.784 C 282.618 237.091,282.548 237.754,282.550 239.258 M132.941 239.648 C 132.942 241.152,133.013 241.720,133.098 240.909 C 133.182 240.099,133.181 238.868,133.094 238.175 C 133.008 237.481,132.939 238.145,132.941 239.648 M241.933 241.016 C 241.933 242.842,242.001 243.589,242.083 242.676 C 242.165 241.763,242.165 240.269,242.083 239.355 C 242.001 238.442,241.933 239.189,241.933 241.016 M191.534 241.602 C 191.536 243.105,191.607 243.673,191.691 242.862 C 191.776 242.052,191.774 240.821,191.688 240.128 C 191.602 239.435,191.533 240.098,191.534 241.602 M220.446 242.383 C 220.448 244.102,220.517 244.756,220.599 243.837 C 220.682 242.919,220.680 241.512,220.596 240.712 C 220.513 239.912,220.445 240.664,220.446 242.383 M179.813 244.922 C 179.813 246.318,179.883 246.890,179.970 246.191 C 180.057 245.493,180.057 244.351,179.970 243.652 C 179.883 242.954,179.813 243.525,179.813 244.922 M129.418 245.117 C 129.420 246.406,129.493 246.887,129.580 246.184 C 129.667 245.482,129.665 244.428,129.576 243.841 C 129.487 243.254,129.416 243.828,129.418 245.117 M146.605 245.117 C 146.608 246.406,146.681 246.887,146.767 246.184 C 146.854 245.482,146.853 244.428,146.763 243.841 C 146.674 243.254,146.603 243.828,146.605 245.117 M253.622 245.703 C 253.622 246.670,253.698 247.065,253.791 246.582 C 253.884 246.099,253.884 245.308,253.791 244.824 C 253.698 244.341,253.622 244.736,253.622 245.703 M121.184 245.703 C 121.184 246.455,121.265 246.763,121.363 246.387 C 121.461 246.011,121.461 245.396,121.363 245.020 C 121.265 244.644,121.184 244.951,121.184 245.703 M278.997 245.703 C 278.997 246.455,279.077 246.763,279.176 246.387 C 279.274 246.011,279.274 245.396,279.176 245.020 C 279.077 244.644,278.997 244.951,278.997 245.703 M158.723 251.465 C 181.674 251.520,219.116 251.520,241.926 251.465 C 264.736 251.409,245.957 251.364,200.195 251.364 C 154.434 251.364,135.771 251.409,158.723 251.465 M291.883 260.253 L 291.797 266.014 200.098 266.113 L 108.398 266.213 200.110 266.309 C 275.002 266.388,291.857 266.313,292.016 265.899 C 292.123 265.620,292.156 262.940,292.089 259.942 L 291.968 254.492 291.883 260.253 M158.105 258.887 C 180.933 258.942,218.286 258.942,241.113 258.887 C 263.940 258.831,245.264 258.785,199.609 258.785 C 153.955 258.785,135.278 258.831,158.105 258.887 M287.612 260.352 C 287.615 261.426,287.691 261.819,287.780 261.225 C 287.870 260.631,287.868 259.752,287.775 259.272 C 287.682 258.792,287.609 259.277,287.612 260.352 " stroke="none" fill="#a0a8ae" fill-rule="evenodd"></path><path id="path3" d="M182.331 178.408 C 183.033 178.495,184.088 178.493,184.675 178.404 C 185.262 178.315,184.688 178.244,183.398 178.246 C 182.109 178.248,181.629 178.321,182.331 178.408 M282.528 183.594 C 282.528 184.561,282.604 184.956,282.698 184.473 C 282.791 183.989,282.791 183.198,282.698 182.715 C 282.604 182.231,282.528 182.627,282.528 183.594 M138.006 185.838 C 139.681 185.911,142.318 185.911,143.866 185.837 C 145.413 185.763,144.043 185.703,140.820 185.703 C 137.598 185.704,136.331 185.764,138.006 185.838 M164.534 185.836 C 165.974 185.911,168.435 185.912,170.002 185.837 C 171.569 185.763,170.391 185.702,167.383 185.701 C 164.375 185.700,163.093 185.761,164.534 185.836 M180.176 185.827 C 180.767 185.916,181.733 185.916,182.324 185.827 C 182.915 185.737,182.432 185.664,181.250 185.664 C 180.068 185.664,179.585 185.737,180.176 185.827 M194.849 185.839 C 198.354 185.904,203.979 185.904,207.349 185.839 C 210.719 185.774,207.852 185.721,200.977 185.721 C 194.102 185.721,191.344 185.774,194.849 185.839 M229.996 185.836 C 231.347 185.913,233.456 185.912,234.683 185.835 C 235.910 185.758,234.805 185.695,232.227 185.696 C 229.648 185.697,228.645 185.760,229.996 185.836 M255.587 185.838 C 257.693 185.909,261.032 185.908,263.009 185.838 C 264.985 185.767,263.262 185.709,259.180 185.710 C 255.098 185.710,253.481 185.768,255.587 185.838 M177.251 191.683 C 177.737 191.776,178.440 191.772,178.813 191.675 C 179.187 191.577,178.789 191.500,177.930 191.505 C 177.070 191.509,176.765 191.589,177.251 191.683 M188.969 191.683 C 189.455 191.776,190.158 191.772,190.532 191.675 C 190.905 191.577,190.508 191.500,189.648 191.505 C 188.789 191.509,188.483 191.589,188.969 191.683 M123.355 194.040 C 124.706 194.116,126.816 194.115,128.043 194.038 C 129.270 193.961,128.164 193.898,125.586 193.899 C 123.008 193.900,122.004 193.963,123.355 194.040 M155.762 194.033 C 156.460 194.119,157.603 194.119,158.301 194.033 C 158.999 193.946,158.428 193.875,157.031 193.875 C 155.635 193.875,155.063 193.946,155.762 194.033 M216.309 194.036 C 217.222 194.118,218.716 194.118,219.629 194.036 C 220.542 193.954,219.795 193.886,217.969 193.886 C 216.143 193.886,215.396 193.954,216.309 194.036 M245.806 194.030 C 246.400 194.120,247.279 194.118,247.759 194.025 C 248.240 193.932,247.754 193.859,246.680 193.862 C 245.605 193.865,245.212 193.941,245.806 194.030 M272.770 194.040 C 274.229 194.115,276.514 194.115,277.848 194.039 C 279.182 193.963,277.988 193.901,275.195 193.902 C 272.402 193.902,271.311 193.965,272.770 194.040 M273.555 200.000 C 273.555 201.182,273.628 201.665,273.717 201.074 C 273.807 200.483,273.807 199.517,273.717 198.926 C 273.628 198.335,273.555 198.818,273.555 200.000 M121.974 200.586 C 121.978 201.445,122.058 201.751,122.151 201.265 C 122.245 200.779,122.241 200.076,122.143 199.702 C 122.046 199.329,121.969 199.727,121.974 200.586 M276.322 209.766 C 276.322 212.451,276.385 213.550,276.461 212.207 C 276.537 210.864,276.537 208.667,276.461 207.324 C 276.385 205.981,276.322 207.080,276.322 209.766 M126.674 215.430 C 126.677 216.504,126.753 216.897,126.843 216.303 C 126.933 215.709,126.930 214.831,126.837 214.350 C 126.745 213.870,126.671 214.355,126.674 215.430 M185.290 222.070 C 185.292 223.789,185.360 224.444,185.443 223.525 C 185.525 222.606,185.524 221.200,185.440 220.400 C 185.356 219.600,185.289 220.352,185.290 222.070 M214.994 227.344 C 214.994 230.029,215.057 231.128,215.133 229.785 C 215.209 228.442,215.209 226.245,215.133 224.902 C 215.057 223.560,214.994 224.658,214.994 227.344 M247.394 228.320 C 247.396 229.824,247.466 230.392,247.551 229.581 C 247.635 228.771,247.634 227.540,247.548 226.847 C 247.461 226.153,247.392 226.816,247.394 228.320 M152.871 235.938 C 152.871 237.764,152.938 238.511,153.020 237.598 C 153.103 236.685,153.103 235.190,153.020 234.277 C 152.938 233.364,152.871 234.111,152.871 235.938 M155.971 241.992 C 155.974 243.066,156.050 243.459,156.140 242.866 C 156.229 242.272,156.227 241.393,156.134 240.913 C 156.042 240.432,155.968 240.918,155.971 241.992 M218.086 244.141 C 218.086 245.322,218.159 245.806,218.249 245.215 C 218.338 244.624,218.338 243.657,218.249 243.066 C 218.159 242.476,218.086 242.959,218.086 244.141 M113.025 250.195 C 113.026 251.914,113.095 252.569,113.177 251.650 C 113.260 250.731,113.259 249.325,113.175 248.525 C 113.091 247.725,113.023 248.477,113.025 250.195 M112.591 260.547 C 112.591 261.299,112.671 261.606,112.769 261.230 C 112.868 260.854,112.868 260.239,112.769 259.863 C 112.671 259.487,112.591 259.795,112.591 260.547 " stroke="none" fill="#848c94" fill-rule="evenodd"></path><path id="path4" d="M117.737 167.729 C 117.622 168.026,117.588 169.037,117.660 169.975 C 117.786 171.625,117.796 171.607,117.977 169.433 C 118.167 167.153,118.111 166.754,117.737 167.729 M282.416 169.452 L 282.605 171.680 282.732 169.770 C 282.802 168.719,282.717 167.717,282.543 167.542 C 282.369 167.367,282.312 168.227,282.416 169.452 M117.650 179.957 C 117.611 183.006,117.710 185.583,117.871 185.683 C 118.032 185.783,118.117 184.168,118.060 182.093 C 117.869 175.132,117.723 174.372,117.650 179.957 M282.565 178.320 C 282.566 180.469,282.631 181.298,282.710 180.163 C 282.789 179.028,282.789 177.270,282.708 176.256 C 282.628 175.243,282.564 176.172,282.565 178.320 M274.805 185.547 L 266.992 185.767 274.684 185.852 C 279.485 185.905,282.467 185.791,282.617 185.547 C 282.750 185.332,282.804 185.195,282.738 185.241 C 282.672 185.288,279.102 185.426,274.805 185.547 M123.340 185.838 C 125.542 185.908,129.146 185.908,131.348 185.838 C 133.550 185.769,131.748 185.712,127.344 185.712 C 122.939 185.712,121.138 185.769,123.340 185.838 M150.293 185.838 C 152.495 185.908,156.099 185.908,158.301 185.838 C 160.503 185.769,158.701 185.712,154.297 185.712 C 149.893 185.712,148.091 185.769,150.293 185.838 M174.328 185.834 C 175.355 185.915,176.937 185.914,177.844 185.832 C 178.750 185.750,177.910 185.684,175.977 185.686 C 174.043 185.687,173.301 185.754,174.328 185.834 M184.863 185.816 C 185.239 185.914,185.854 185.914,186.230 185.816 C 186.606 185.718,186.299 185.638,185.547 185.638 C 184.795 185.638,184.487 185.718,184.863 185.816 M216.915 185.838 C 219.021 185.909,222.361 185.908,224.337 185.838 C 226.313 185.767,224.590 185.709,220.508 185.710 C 216.426 185.710,214.809 185.768,216.915 185.838 M240.548 185.838 C 242.762 185.908,246.277 185.908,248.361 185.838 C 250.444 185.768,248.633 185.711,244.336 185.711 C 240.039 185.711,238.335 185.769,240.548 185.838 M121.213 188.182 C 123.534 188.252,127.225 188.251,129.416 188.182 C 131.606 188.112,129.707 188.056,125.195 188.056 C 120.684 188.056,118.891 188.113,121.213 188.182 M185.840 188.173 C 186.538 188.260,187.681 188.260,188.379 188.173 C 189.077 188.087,188.506 188.016,187.109 188.016 C 185.713 188.016,185.142 188.087,185.840 188.173 M212.619 188.182 C 214.940 188.252,218.632 188.251,220.822 188.182 C 223.012 188.112,221.113 188.056,216.602 188.056 C 212.090 188.056,210.298 188.113,212.619 188.182 M246.598 188.181 C 248.057 188.256,250.343 188.255,251.676 188.179 C 253.010 188.103,251.816 188.042,249.023 188.042 C 246.230 188.043,245.139 188.105,246.598 188.181 M270.996 188.182 C 273.198 188.252,276.802 188.252,279.004 188.182 C 281.206 188.112,279.404 188.055,275.000 188.055 C 270.596 188.055,268.794 188.112,270.996 188.182 M121.407 191.698 C 123.621 191.768,127.137 191.767,129.220 191.697 C 131.303 191.627,129.492 191.570,125.195 191.570 C 120.898 191.571,119.194 191.628,121.407 191.698 M151.270 191.697 C 152.935 191.770,155.659 191.770,157.324 191.697 C 158.989 191.623,157.627 191.563,154.297 191.563 C 150.967 191.563,149.604 191.623,151.270 191.697 M181.558 191.696 C 182.909 191.772,185.019 191.772,186.246 191.694 C 187.473 191.617,186.367 191.555,183.789 191.555 C 181.211 191.556,180.207 191.619,181.558 191.696 M213.379 191.697 C 215.044 191.770,217.769 191.770,219.434 191.697 C 221.099 191.623,219.736 191.563,216.406 191.563 C 213.076 191.563,211.714 191.623,213.379 191.697 M241.523 191.697 C 243.414 191.769,246.402 191.769,248.164 191.697 C 249.926 191.624,248.379 191.566,244.727 191.566 C 241.074 191.567,239.633 191.626,241.523 191.697 M270.801 191.697 C 272.681 191.769,275.757 191.769,277.637 191.697 C 279.517 191.625,277.979 191.567,274.219 191.567 C 270.459 191.567,268.921 191.625,270.801 191.697 M150.488 194.035 C 151.294 194.119,152.612 194.119,153.418 194.035 C 154.224 193.950,153.564 193.881,151.953 193.881 C 150.342 193.881,149.683 193.950,150.488 194.035 M180.078 194.009 C 184.304 194.294,188.976 194.312,188.808 194.043 C 188.708 193.882,186.307 193.782,183.473 193.820 C 180.639 193.859,179.111 193.944,180.078 194.009 M212.212 194.030 C 212.806 194.120,213.685 194.118,214.166 194.025 C 214.646 193.932,214.160 193.859,213.086 193.862 C 212.012 193.865,211.619 193.941,212.212 194.030 M241.895 194.030 C 242.485 194.119,243.452 194.119,244.043 194.030 C 244.634 193.940,244.150 193.867,242.969 193.867 C 241.787 193.867,241.304 193.940,241.895 194.030 M248.438 193.903 C 248.438 193.986,249.040 194.126,249.777 194.212 C 250.514 194.298,251.031 194.229,250.926 194.059 C 250.737 193.753,248.438 193.609,248.438 193.903 M217.703 200.391 C 217.703 201.787,217.774 202.358,217.861 201.660 C 217.947 200.962,217.947 199.819,217.861 199.121 C 217.774 198.423,217.703 198.994,217.703 200.391 M118.493 202.539 C 118.495 204.258,118.563 204.912,118.646 203.994 C 118.728 203.075,118.727 201.669,118.643 200.869 C 118.559 200.069,118.492 200.820,118.493 202.539 M209.238 199.873 C 209.485 200.050,209.776 200.635,209.886 201.172 C 210.057 202.013,210.076 201.990,210.023 201.007 C 209.988 200.363,209.706 199.796,209.375 199.707 C 208.983 199.602,208.938 199.657,209.238 199.873 M238.551 199.881 C 238.806 200.063,239.086 201.175,239.173 202.352 L 239.331 204.492 239.294 202.179 C 239.267 200.476,239.103 199.825,238.672 199.708 C 238.263 199.598,238.226 199.650,238.551 199.881 M161.069 203.125 C 161.069 204.736,161.138 205.396,161.222 204.590 C 161.306 203.784,161.306 202.466,161.222 201.660 C 161.138 200.854,161.069 201.514,161.069 203.125 M252.469 202.734 C 252.469 204.131,252.540 204.702,252.626 204.004 C 252.713 203.306,252.713 202.163,252.626 201.465 C 252.540 200.767,252.469 201.338,252.469 202.734 M278.250 202.734 C 278.250 204.131,278.321 204.702,278.408 204.004 C 278.494 203.306,278.494 202.163,278.408 201.465 C 278.321 200.767,278.250 201.338,278.250 202.734 M177.087 203.711 C 177.088 205.430,177.157 206.084,177.240 205.165 C 177.322 204.247,177.321 202.840,177.237 202.040 C 177.153 201.240,177.086 201.992,177.087 203.711 M273.602 209.570 C 273.601 213.867,273.658 215.678,273.728 213.595 C 273.799 211.512,273.799 207.996,273.729 205.782 C 273.659 203.569,273.602 205.273,273.602 209.570 M187.241 205.469 C 187.241 207.080,187.310 207.739,187.394 206.934 C 187.478 206.128,187.478 204.810,187.394 204.004 C 187.310 203.198,187.241 203.857,187.241 205.469 M223.178 205.469 C 223.178 207.080,223.247 207.739,223.331 206.934 C 223.416 206.128,223.416 204.810,223.331 204.004 C 223.247 203.198,223.178 203.857,223.178 205.469 M271.613 205.273 C 271.614 206.777,271.685 207.345,271.769 206.534 C 271.854 205.724,271.853 204.493,271.766 203.800 C 271.680 203.106,271.611 203.770,271.613 205.273 M128.641 206.250 C 128.641 207.646,128.712 208.218,128.798 207.520 C 128.885 206.821,128.885 205.679,128.798 204.980 C 128.712 204.282,128.641 204.854,128.641 206.250 M281.766 208.203 C 281.766 209.600,281.837 210.171,281.923 209.473 C 282.010 208.774,282.010 207.632,281.923 206.934 C 281.837 206.235,281.766 206.807,281.766 208.203 M213.019 209.180 C 213.021 210.684,213.091 211.251,213.176 210.441 C 213.260 209.630,213.259 208.400,213.173 207.706 C 213.086 207.013,213.017 207.676,213.019 209.180 M268.086 208.594 C 268.086 209.775,268.159 210.259,268.249 209.668 C 268.338 209.077,268.338 208.110,268.249 207.520 C 268.159 206.929,268.086 207.412,268.086 208.594 M150.909 209.961 C 150.911 211.465,150.982 212.032,151.066 211.222 C 151.151 210.411,151.149 209.181,151.063 208.487 C 150.977 207.794,150.908 208.457,150.909 209.961 M249.340 209.961 C 249.342 211.250,249.415 211.730,249.502 211.028 C 249.589 210.326,249.587 209.271,249.498 208.684 C 249.409 208.097,249.338 208.672,249.340 209.961 M132.148 212.109 C 132.148 213.291,132.222 213.774,132.311 213.184 C 132.401 212.593,132.401 211.626,132.311 211.035 C 132.222 210.444,132.148 210.928,132.148 212.109 M190.746 213.477 C 190.748 214.766,190.821 215.246,190.908 214.544 C 190.995 213.842,190.993 212.787,190.904 212.200 C 190.815 211.613,190.744 212.188,190.746 213.477 M157.930 214.063 C 157.930 215.244,158.003 215.728,158.092 215.137 C 158.182 214.546,158.182 213.579,158.092 212.988 C 158.003 212.397,157.930 212.881,157.930 214.063 M242.316 215.430 C 242.317 216.934,242.388 217.501,242.473 216.691 C 242.557 215.880,242.556 214.650,242.469 213.956 C 242.383 213.263,242.314 213.926,242.316 215.430 M220.050 215.820 C 220.052 217.324,220.122 217.892,220.207 217.081 C 220.292 216.271,220.290 215.040,220.204 214.347 C 220.118 213.653,220.048 214.316,220.050 215.820 M147.387 216.211 C 147.389 217.500,147.462 217.980,147.549 217.278 C 147.636 216.576,147.634 215.521,147.545 214.934 C 147.456 214.347,147.384 214.922,147.387 216.211 M276.344 225.195 C 276.344 231.211,276.398 233.617,276.464 230.543 C 276.530 227.468,276.530 222.546,276.464 219.605 C 276.397 216.664,276.343 219.180,276.344 225.195 M209.496 217.773 C 209.498 219.062,209.571 219.543,209.658 218.841 C 209.745 218.139,209.743 217.084,209.654 216.497 C 209.565 215.910,209.494 216.484,209.496 217.773 M180.203 218.359 C 180.203 219.756,180.274 220.327,180.361 219.629 C 180.447 218.931,180.447 217.788,180.361 217.090 C 180.274 216.392,180.203 216.963,180.203 218.359 M252.851 218.359 C 252.851 219.541,252.925 220.024,253.014 219.434 C 253.104 218.843,253.104 217.876,253.014 217.285 C 252.925 216.694,252.851 217.178,252.851 218.359 M121.605 220.508 C 121.608 221.797,121.681 222.277,121.767 221.575 C 121.854 220.873,121.853 219.818,121.763 219.231 C 121.674 218.644,121.603 219.219,121.605 220.508 M126.716 223.438 C 126.716 226.338,126.777 227.524,126.852 226.074 C 126.927 224.624,126.927 222.251,126.852 220.801 C 126.777 219.351,126.716 220.537,126.716 223.438 M161.449 220.508 C 161.451 221.797,161.524 222.277,161.611 221.575 C 161.698 220.873,161.696 219.818,161.607 219.231 C 161.518 218.644,161.447 219.219,161.449 220.508 M238.793 220.508 C 238.795 221.797,238.868 222.277,238.955 221.575 C 239.042 220.873,239.040 219.818,238.951 219.231 C 238.862 218.644,238.791 219.219,238.793 220.508 M278.647 223.047 C 278.647 224.658,278.716 225.317,278.800 224.512 C 278.884 223.706,278.884 222.388,278.800 221.582 C 278.716 220.776,278.647 221.436,278.647 223.047 M118.090 223.242 C 118.092 224.531,118.165 225.012,118.252 224.309 C 118.339 223.607,118.337 222.553,118.248 221.966 C 118.159 221.379,118.088 221.953,118.090 223.242 M176.691 224.023 C 176.692 225.527,176.763 226.095,176.848 225.284 C 176.932 224.474,176.931 223.243,176.844 222.550 C 176.758 221.856,176.689 222.520,176.691 224.023 M223.555 223.438 C 223.555 224.619,223.628 225.103,223.717 224.512 C 223.807 223.921,223.807 222.954,223.717 222.363 C 223.628 221.772,223.555 222.256,223.555 223.438 M129.013 223.438 C 129.013 224.404,129.089 224.800,129.182 224.316 C 129.275 223.833,129.275 223.042,129.182 222.559 C 129.089 222.075,129.013 222.471,129.013 223.438 M187.625 225.391 C 187.625 226.787,187.696 227.358,187.783 226.660 C 187.869 225.962,187.869 224.819,187.783 224.121 C 187.696 223.423,187.625 223.994,187.625 225.391 M271.200 225.391 C 271.200 226.357,271.276 226.753,271.369 226.270 C 271.463 225.786,271.463 224.995,271.369 224.512 C 271.276 224.028,271.200 224.424,271.200 225.391 M282.163 226.563 C 282.163 228.174,282.232 228.833,282.316 228.027 C 282.400 227.222,282.400 225.903,282.316 225.098 C 282.232 224.292,282.163 224.951,282.163 226.563 M267.703 227.344 C 267.703 228.740,267.774 229.312,267.861 228.613 C 267.947 227.915,267.947 226.772,267.861 226.074 C 267.774 225.376,267.703 225.947,267.703 227.344 M185.325 234.961 C 185.325 240.117,185.381 242.173,185.448 239.528 C 185.516 236.884,185.516 232.665,185.448 230.153 C 185.380 227.641,185.324 229.805,185.325 234.961 M249.734 228.125 C 249.734 229.521,249.805 230.093,249.892 229.395 C 249.979 228.696,249.979 227.554,249.892 226.855 C 249.805 226.157,249.734 226.729,249.734 228.125 M132.539 228.906 C 132.539 230.088,132.612 230.571,132.702 229.980 C 132.791 229.390,132.791 228.423,132.702 227.832 C 132.612 227.241,132.539 227.725,132.539 228.906 M150.519 229.883 C 150.521 231.387,150.591 231.954,150.676 231.144 C 150.760 230.333,150.759 229.103,150.673 228.409 C 150.586 227.716,150.517 228.379,150.519 229.883 M212.634 231.836 C 212.635 233.555,212.704 234.209,212.787 233.290 C 212.869 232.372,212.868 230.965,212.784 230.165 C 212.700 229.365,212.632 230.117,212.634 231.836 M191.133 231.250 C 191.133 232.432,191.206 232.915,191.295 232.324 C 191.385 231.733,191.385 230.767,191.295 230.176 C 191.206 229.585,191.133 230.068,191.133 231.250 M158.328 232.031 C 158.328 233.428,158.399 233.999,158.486 233.301 C 158.572 232.603,158.572 231.460,158.486 230.762 C 158.399 230.063,158.328 230.635,158.328 232.031 M247.431 238.867 C 247.431 243.379,247.488 245.171,247.557 242.850 C 247.627 240.529,247.626 236.837,247.557 234.647 C 247.487 232.456,247.431 234.355,247.431 238.867 M215.007 239.453 C 215.007 243.643,215.065 245.356,215.135 243.262 C 215.205 241.167,215.205 237.739,215.135 235.645 C 215.065 233.550,215.007 235.264,215.007 239.453 M146.996 234.570 C 146.998 235.859,147.071 236.340,147.158 235.638 C 147.245 234.935,147.243 233.881,147.154 233.294 C 147.065 232.707,146.994 233.281,146.996 234.570 M220.438 235.547 C 220.438 236.943,220.508 237.515,220.595 236.816 C 220.682 236.118,220.682 234.976,220.595 234.277 C 220.508 233.579,220.438 234.150,220.438 235.547 M241.909 234.961 C 241.912 236.035,241.987 236.428,242.077 235.834 C 242.167 235.241,242.165 234.362,242.072 233.881 C 241.979 233.401,241.906 233.887,241.909 234.961 M253.242 235.156 C 253.242 236.338,253.315 236.821,253.405 236.230 C 253.494 235.640,253.494 234.673,253.405 234.082 C 253.315 233.491,253.242 233.975,253.242 235.156 M209.109 236.719 C 209.109 238.115,209.180 238.687,209.267 237.988 C 209.354 237.290,209.354 236.147,209.267 235.449 C 209.180 234.751,209.109 235.322,209.109 236.719 M179.809 237.695 C 179.811 238.984,179.884 239.465,179.971 238.763 C 180.058 238.060,180.056 237.006,179.967 236.419 C 179.877 235.832,179.806 236.406,179.809 237.695 M161.817 237.305 C 161.822 238.164,161.902 238.470,161.995 237.984 C 162.088 237.498,162.085 236.795,161.987 236.421 C 161.889 236.048,161.813 236.445,161.817 237.305 M238.402 239.258 C 238.404 240.547,238.477 241.027,238.564 240.325 C 238.651 239.623,238.649 238.568,238.560 237.981 C 238.471 237.394,238.400 237.969,238.402 239.258 M129.418 239.648 C 129.420 240.937,129.493 241.418,129.580 240.716 C 129.667 240.014,129.665 238.959,129.576 238.372 C 129.487 237.785,129.416 238.359,129.418 239.648 M121.211 240.625 C 121.211 241.807,121.284 242.290,121.374 241.699 C 121.463 241.108,121.463 240.142,121.374 239.551 C 121.284 238.960,121.211 239.443,121.211 240.625 M223.935 240.625 C 223.935 241.592,224.011 241.987,224.104 241.504 C 224.197 241.021,224.197 240.229,224.104 239.746 C 224.011 239.263,223.935 239.658,223.935 240.625 M279.018 241.211 C 279.021 242.285,279.097 242.678,279.187 242.084 C 279.276 241.491,279.274 240.612,279.181 240.131 C 279.089 239.651,279.015 240.137,279.018 241.211 M117.699 242.773 C 117.701 244.062,117.774 244.543,117.861 243.841 C 117.948 243.139,117.946 242.084,117.857 241.497 C 117.768 240.910,117.697 241.484,117.699 242.773 M176.284 242.773 C 176.287 243.848,176.362 244.241,176.452 243.647 C 176.542 243.053,176.540 242.174,176.447 241.694 C 176.354 241.213,176.281 241.699,176.284 242.773 M270.820 242.969 C 270.820 244.150,270.893 244.634,270.983 244.043 C 271.072 243.452,271.072 242.485,270.983 241.895 C 270.893 241.304,270.820 241.787,270.820 242.969 M152.863 244.727 C 152.864 246.230,152.935 246.798,153.019 245.987 C 153.104 245.177,153.103 243.946,153.016 243.253 C 152.930 242.560,152.861 243.223,152.863 244.727 M188.016 244.922 C 188.016 246.318,188.087 246.890,188.173 246.191 C 188.260 245.493,188.260 244.351,188.173 243.652 C 188.087 242.954,188.016 243.525,188.016 244.922 M267.294 244.531 C 267.294 245.498,267.370 245.894,267.463 245.410 C 267.556 244.927,267.556 244.136,267.463 243.652 C 267.370 243.169,267.294 243.564,267.294 244.531 M132.930 245.313 C 132.930 246.494,133.003 246.978,133.092 246.387 C 133.182 245.796,133.182 244.829,133.092 244.238 C 133.003 243.647,132.930 244.131,132.930 245.313 M155.971 245.508 C 155.974 246.582,156.050 246.975,156.140 246.381 C 156.229 245.788,156.227 244.909,156.134 244.428 C 156.042 243.948,155.968 244.434,155.971 245.508 M282.528 245.313 C 282.528 246.279,282.604 246.675,282.698 246.191 C 282.791 245.708,282.791 244.917,282.698 244.434 C 282.604 243.950,282.528 244.346,282.528 245.313 M250.091 245.703 C 250.091 246.455,250.171 246.763,250.269 246.387 C 250.368 246.011,250.368 245.396,250.269 245.020 C 250.171 244.644,250.091 244.951,250.091 245.703 " stroke="none" fill="#7c8c91" fill-rule="evenodd"></path></g></svg>