<?xml version="1.0" encoding="UTF-8"?>
<svg version="1.1" xmlns="http://www.w3.org/2000/svg" width="1024" height="1024">
<path d="M0 0 C337.92 0 675.84 0 1024 0 C1024 337.92 1024 675.84 1024 1024 C686.08 1024 348.16 1024 0 1024 C0 686.08 0 348.16 0 0 Z " fill="#FCFCFC" transform="translate(0,0)"/>
<path d="M0 0 C1.39045029 -0.00574036 1.39045029 -0.00574036 2.80899048 -0.01159668 C4.76394745 -0.01431044 6.71894105 -0.00698687 8.67382812 0.00976562 C11.64797032 0.03113438 14.61968365 0.00997107 17.59375 -0.015625 C19.50000528 -0.01298068 21.40625906 -0.00785354 23.3125 0 C24.63318985 -0.01214539 24.63318985 -0.01214539 25.9805603 -0.02453613 C32.53925354 0.07380381 38.17112362 1.42063279 42.93954468 6.17785645 C45.43332926 9.14077999 46.61091867 11.71169905 46.7890625 15.59375 C46.14708616 20.64931366 44.55534831 23.72922789 41.6640625 27.84375 C39.03714164 29.7102464 37.78559198 29.85158261 34.640625 30.13671875 C33.82674316 30.2143042 33.01286133 30.29188965 32.17431641 30.37182617 C31.55218262 30.42443604 30.93004883 30.4770459 30.2890625 30.53125 C30.34441162 31.70437744 30.39976074 32.87750488 30.45678711 34.08618164 C31.78815495 62.79547248 32.54876494 91.48329057 32.9140625 120.21875 C32.92430828 121.02409809 32.93455406 121.82944618 32.94511032 122.65919876 C33.07077815 132.61644935 33.18147528 142.57376996 33.2890625 152.53125 C44.8390625 152.53125 56.3890625 152.53125 68.2890625 152.53125 C68.2684375 147.74625 68.2478125 142.96125 68.2265625 138.03125 C68.19971101 120.23542624 68.4245375 102.44362387 68.69478226 84.65029907 C68.72621294 82.55455818 68.75633247 80.4588022 68.78610229 78.36303711 C69.01492758 62.40222787 69.38397767 46.4696273 70.2890625 30.53125 C69.20109375 30.57378906 68.113125 30.61632812 66.9921875 30.66015625 C63.05180065 30.52299088 61.42891828 29.78799813 58.578125 27.08203125 C55.51313504 23.39475545 54.42675049 19.65242366 53.8515625 14.96875 C54.53236361 9.61959842 56.93543966 6.72372726 60.9140625 3.21875 C64.05472952 0.98722344 65.67048548 0.40420226 69.45996094 0.37011719 C70.75205475 0.35570587 70.75205475 0.35570587 72.07025146 0.34100342 C73.47020355 0.3346286 73.47020355 0.3346286 74.8984375 0.328125 C75.85800354 0.32242493 76.81756958 0.31672485 77.80621338 0.31085205 C79.84052424 0.30139398 81.87485048 0.29486488 83.90917969 0.29101562 C87.01264467 0.28133243 90.11544117 0.2503258 93.21875 0.21875 C95.19530857 0.21221771 97.17187187 0.20696813 99.1484375 0.203125 C100.07364197 0.1907782 100.99884644 0.1784314 101.9520874 0.16571045 C107.15727273 0.18358367 110.79799087 0.59834091 115.2890625 3.53125 C119.96083593 8.70808002 120.6368966 11.92478498 120.57421875 18.765625 C120.08428354 23.51732544 117.73704279 26.08326971 114.4765625 29.34375 C111.5077221 30.95540622 108.6153567 31.1101512 105.2890625 31.53125 C105.31411865 32.51619446 105.3391748 33.50113892 105.36499023 34.51593018 C105.60518929 43.98179989 105.84045504 53.44778225 106.07136536 62.91388321 C106.19011036 67.77582108 106.31036104 72.63771013 106.43457031 77.49951172 C107.07249798 102.52063988 107.39196365 127.5005459 107.2890625 152.53125 C119.1690625 152.53125 131.0490625 152.53125 143.2890625 152.53125 C143.28003906 149.37046875 143.27101563 146.2096875 143.26171875 142.953125 C143.24854718 128.91044134 143.46148782 114.87195897 143.69292068 100.83153152 C143.72696993 98.7564197 143.76028171 96.68129711 143.79342651 94.60617065 C144.13067945 73.5762327 144.56789032 52.55191171 145.2890625 31.53125 C144.36480469 31.40234375 143.44054687 31.2734375 142.48828125 31.140625 C137.73046178 30.23437367 134.49151145 28.19750068 131.6484375 24.2578125 C129.27156518 19.49040768 129.43130294 14.71897982 130.2890625 9.53125 C132.6293875 5.13840697 135.75454973 2.49075201 140.2890625 0.53125 C142.39338684 0.26382446 142.39338684 0.26382446 144.67114258 0.24072266 C145.5291597 0.22796295 146.38717682 0.21520325 147.27119446 0.20205688 C148.19103622 0.19983124 149.11087799 0.19760559 150.05859375 0.1953125 C151.01295822 0.1886557 151.96732269 0.1819989 152.9506073 0.17514038 C154.96876094 0.16502267 156.98694798 0.16032309 159.00512695 0.16064453 C162.08015679 0.15628038 165.15374049 0.11997623 168.22851562 0.08203125 C170.19270345 0.07616098 172.15689806 0.07219299 174.12109375 0.0703125 C175.03486282 0.05594147 175.9486319 0.04157043 176.89009094 0.02676392 C183.66686907 0.0748337 187.93530278 1.50180991 193.06640625 6.13671875 C196.01779161 10.16133515 197.00895145 13.37647604 196.71875 18.38671875 C196.04521645 21.74826347 194.45710941 23.9295937 192.2890625 26.53125 C191.8146875 27.10875 191.3403125 27.68625 190.8515625 28.28125 C187.45594054 30.99774757 184.59454302 31.53125 180.2890625 31.53125 C180.35472412 32.29606689 180.42038574 33.06088379 180.48803711 33.84887695 C181.35503836 44.79984316 181.63225492 55.73875805 181.8515625 66.71875 C181.87274139 67.72518555 181.89392029 68.73162109 181.91574097 69.76855469 C182.48406716 97.35375771 182.37551929 124.94192836 182.2890625 152.53125 C197.1390625 152.53125 211.9890625 152.53125 227.2890625 152.53125 C227.2271875 144.301875 227.2271875 144.301875 227.1640625 135.90625 C227.08740454 113.20894845 227.68326988 90.53095668 228.2890625 67.84375 C228.32493595 66.49989857 228.32493595 66.49989857 228.36153412 65.12889862 C228.6613655 53.9294185 228.97081142 42.73022155 229.2890625 31.53125 C228.17829346 31.39170898 227.06752441 31.25216797 225.9230957 31.10839844 C220.93964357 30.31693852 218.5946937 28.19424674 215.2890625 24.53125 C212.86970355 20.53404825 212.56040968 16.11006834 213.2890625 11.53125 C215.86195751 6.57604479 219.27140176 3.04008037 224.2890625 0.53125 C225.66556097 0.41717704 227.04720691 0.36196249 228.42822266 0.33837891 C229.28316315 0.32231598 230.13810364 0.30625305 231.01895142 0.28970337 C234.94573135 0.24512498 238.87234211 0.20415346 242.79931641 0.18115234 C244.86518655 0.16463575 246.93100057 0.1374029 248.99658203 0.09912109 C251.98239657 0.04408524 254.96687007 0.02243366 257.953125 0.0078125 C258.8680069 -0.01485687 259.78288879 -0.03752625 260.72549438 -0.06088257 C267.08933612 -0.04012716 271.40187481 1.37299013 276.2890625 5.53125 C279.45927483 9.21425242 280.60985755 12.19956916 280.2890625 17.09375 C279.38281842 22.41340276 277.23660947 26.04496415 272.9140625 29.34375 C270.02762014 30.64952155 267.40919004 31.0628011 264.2890625 31.53125 C264.31411865 32.72267609 264.3391748 33.91410217 264.36499023 35.14163208 C264.60284703 46.46616344 264.83825282 57.79074357 265.07136536 69.11537361 C265.19123603 74.93501442 265.31191825 80.75463585 265.43457031 86.57421875 C265.55329047 92.20874949 265.66972857 97.84332351 265.78469849 103.47793198 C265.82855857 105.60890201 265.87318951 107.73985634 265.91867065 109.87079239 C266.22158158 124.09459639 266.32996031 138.30392404 266.2890625 152.53125 C278.1690625 152.53125 290.0490625 152.53125 302.2890625 152.53125 C302.27552734 147.57146118 302.27552734 147.57146118 302.26171875 142.51147461 C302.2504487 130.28575855 302.46219695 118.07003193 302.7265625 105.84765625 C302.77161088 103.68334884 302.81644706 101.519037 302.86108398 99.35472107 C302.97735271 93.74406451 303.09644202 88.1334715 303.21618652 82.52288818 C303.33858828 76.76334232 303.458229 71.0037391 303.578125 65.24414062 C303.81245245 54.00645371 304.04976958 42.7688322 304.2890625 31.53125 C303.17829346 31.39170898 302.06752441 31.25216797 300.9230957 31.10839844 C295.93964357 30.31693852 293.5946937 28.19424674 290.2890625 24.53125 C287.86970355 20.53404825 287.56040968 16.11006834 288.2890625 11.53125 C290.86195751 6.57604479 294.27140176 3.04008037 299.2890625 0.53125 C300.69605154 0.41199002 302.10828455 0.35158624 303.52001953 0.32250977 C304.39498077 0.30321915 305.26994202 0.28392853 306.17141724 0.26405334 C310.18975684 0.20620253 314.20791687 0.15699468 318.2265625 0.1262207 C320.34098687 0.1046813 322.45532305 0.07062699 324.56933594 0.02368164 C327.62475234 -0.04354135 330.67832192 -0.07081877 333.734375 -0.08984375 C334.67113068 -0.11767441 335.60788635 -0.14550507 336.57302856 -0.17417908 C343.45067099 -0.15283149 347.35597012 1.76001201 352.2890625 6.53125 C355.19489702 9.98192849 355.84246556 12.94446908 355.62890625 17.48046875 C354.8668155 22.07929226 352.91875757 25.20879252 349.3828125 28.078125 C345.64690745 30.55943507 343.91322182 31.53125 339.2890625 31.53125 C339.31411865 32.09142822 339.3391748 32.65160645 339.36499023 33.22875977 C341.08043482 72.96405793 341.44876877 112.7643892 341.2890625 152.53125 C352.8390625 152.53125 364.3890625 152.53125 376.2890625 152.53125 C376.27552734 148.07395386 376.27552734 148.07395386 376.26171875 143.52661133 C376.24956131 131.54903274 376.47432823 119.57990798 376.7265625 107.60546875 C376.77158862 105.39346182 376.81642544 103.18145103 376.86108398 100.96943665 C376.97757654 95.2239492 377.09659279 89.47851688 377.21618652 83.73309326 C377.33839679 77.83967222 377.45814867 71.94620124 377.578125 66.05273438 C377.81273682 54.54552356 378.0500224 43.03836962 378.2890625 31.53125 C377.35320312 31.38945312 376.41734375 31.24765625 375.453125 31.1015625 C370.33705466 30.17940661 368.07465179 28.59285715 364.9765625 24.40625 C362.79059108 20.18598681 362.44798774 16.18689616 363.2890625 11.53125 C365.82146632 6.5602351 369.27767384 3.03694433 374.2890625 0.53125 C375.63507535 0.42235458 376.98613618 0.37232527 378.33642578 0.35424805 C379.17134552 0.34141281 380.00626526 0.32857758 380.8664856 0.31535339 C381.7716391 0.30796646 382.6767926 0.30057953 383.609375 0.29296875 C384.54200165 0.284897 385.4746283 0.27682526 386.43551636 0.26850891 C388.41434874 0.25466045 390.39320508 0.24394172 392.37207031 0.23608398 C395.38132965 0.21893652 398.38947158 0.17506529 401.3984375 0.13085938 C403.3229086 0.12072657 405.24738904 0.11221231 407.171875 0.10546875 C408.51138718 0.07920662 408.51138718 0.07920662 409.87796021 0.05241394 C415.83051501 0.07280974 420.32444007 1.14855829 425.2890625 4.53125 C428.61176766 8.02009042 429.56075319 10.76700509 429.7890625 15.46875 C429.55802676 20.58234104 428.42826676 23.48332871 425.2890625 27.53125 C421.11577161 30.34368516 418.22031273 30.64800662 413.2890625 30.53125 C413.34964844 31.706875 413.41023438 32.8825 413.47265625 34.09375 C415.36836047 73.5411806 415.45273646 113.04805449 415.2890625 152.53125 C419.5790625 152.53125 423.8690625 152.53125 428.2890625 152.53125 C428.2890625 158.80125 428.2890625 165.07125 428.2890625 171.53125 C431.9190625 171.53125 435.5490625 171.53125 439.2890625 171.53125 C439.2890625 181.10125 439.2890625 190.67125 439.2890625 200.53125 C284.5190625 200.53125 129.7490625 200.53125 -29.7109375 200.53125 C-29.7109375 190.96125 -29.7109375 181.39125 -29.7109375 171.53125 C-25.7509375 171.53125 -21.7909375 171.53125 -17.7109375 171.53125 C-17.7109375 165.26125 -17.7109375 158.99125 -17.7109375 152.53125 C-13.7509375 152.53125 -9.7909375 152.53125 -5.7109375 152.53125 C-5.71315811 151.62004898 -5.71537872 150.70884796 -5.71766663 149.77003479 C-5.74453587 138.21128166 -5.76270042 126.65252947 -5.7734375 115.09375 C-5.77429352 114.17866669 -5.77514954 113.26358337 -5.77603149 112.32077026 C-5.79832127 85.37837991 -5.70201847 58.45913077 -4.7109375 31.53125 C-6.09732422 31.33595703 -6.09732422 31.33595703 -7.51171875 31.13671875 C-12.54204069 30.18470422 -15.61838658 28.06082129 -18.5859375 23.90625 C-20.54710419 18.02274994 -20.80278665 12.79893669 -18.0859375 7.15625 C-12.48671863 0.96763967 -7.98336724 -0.07308096 0 0 Z " fill="#283846" transform="translate(307.7109375,480.46875)"/>
<path d="M0 0 C1.26340037 0.49584603 2.5270047 0.99117257 3.79077148 1.48608398 C5.23497605 2.07087111 6.67836893 2.65766541 8.12109375 3.24609375 C8.91601227 3.56851044 9.71093079 3.89092712 10.52993774 4.22311401 C13.16648085 5.29288741 15.80197761 6.36521468 18.4375 7.4375 C20.31624114 8.20032019 22.19506781 8.96292975 24.07397461 9.7253418 C27.02793731 10.92398446 29.98185137 12.12274513 32.9355011 13.32215881 C39.78986713 16.10521785 46.64760376 18.87981416 53.5078125 21.6484375 C74.53953764 30.13726363 95.55498966 38.66428885 116.54885864 47.24633789 C134.11024785 54.42453086 151.69216692 61.55094751 169.28710938 68.64648438 C171.11850271 69.38538414 172.94988326 70.12431558 174.78125 70.86328125 C176.08709045 71.38971725 176.08709045 71.38971725 177.41931152 71.92678833 C181.61151876 73.61958886 185.79753802 75.32549691 189.97265625 77.06005859 C190.75411011 77.38443405 191.53556396 77.70880951 192.34069824 78.04301453 C193.79467291 78.64798718 195.24763377 79.25540491 196.69934082 79.86579895 C199.80457052 81.15869563 202.72397511 82.18099378 206 83 C206 86.63 206 90.26 206 94 C66.41 94 -73.18 94 -217 94 C-217 90.7 -217 87.4 -217 84 C-209.9701526 80.37609884 -202.89536173 77.22777035 -195.5390625 74.33203125 C-194.45282593 73.90005432 -193.36658936 73.46807739 -192.24743652 73.02301025 C-189.91944313 72.09751751 -187.5907065 71.17389246 -185.2612915 70.25198364 C-179.66615795 68.03706132 -174.07587133 65.80999241 -168.48586655 63.58216667 C-167.22212147 63.07854206 -165.95831967 62.57505976 -164.69446182 62.07171822 C-153.14285242 57.47068265 -141.62562978 52.78934472 -130.125 48.0625 C-91.62362877 32.25121868 -52.99309299 16.75436334 -14.33496094 1.33081055 C-11.08667004 0.09196971 -11.08667004 0.09196971 -8.42285156 -1.30541992 C-4.99399861 -2.28839923 -3.27094657 -1.35941609 0 0 Z " fill="#263847" transform="translate(518,345)"/>
<path d="M0 0 C139.59 0 279.18 0 423 0 C423 9.57 423 19.14 423 29 C421.11061536 30.88938464 417.81324354 30.12552248 415.30483246 30.12584114 C414.59317289 30.12729458 413.88151332 30.12874802 413.14828831 30.13024551 C410.73340024 30.13393161 408.31857426 30.1304071 405.90368652 30.12698364 C404.16699487 30.12813443 402.43030347 30.12972167 400.69361258 30.13171089 C395.89773342 30.13591001 391.101874 30.13381091 386.30599475 30.13072467 C381.14302606 30.12847314 375.9800609 30.13194894 370.8170929 30.13470459 C360.69352474 30.13916395 350.56996397 30.13818509 340.44639552 30.13529195 C332.22274186 30.13303856 323.99909028 30.13272511 315.7754364 30.13381577 C314.60743353 30.133969 313.43943066 30.13412223 312.23603377 30.13428011 C309.86366403 30.13459982 307.49129429 30.13492403 305.11892456 30.1352527 C282.84464671 30.13810798 260.57037297 30.13481972 238.29609579 30.12945233 C219.16109956 30.12498425 200.0261094 30.12576017 180.89111328 30.13037109 C158.69950527 30.13571602 136.50790086 30.13783328 114.31629229 30.13475883 C111.95238272 30.13444026 109.58847316 30.13412589 107.2245636 30.13381577 C106.06130888 30.13366149 104.89805415 30.13350721 103.69954929 30.13334826 C95.48058142 30.13248286 87.26161583 30.13394648 79.04264832 30.13629532 C69.03393132 30.13909261 59.02522217 30.13835656 49.01650608 30.13301457 C43.90459821 30.1303766 38.79270345 30.12937412 33.68079567 30.13266373 C29.00907302 30.13562472 24.33737575 30.13403719 19.66565543 30.12868617 C17.96783245 30.12756114 16.27000735 30.12815505 14.5721857 30.13056196 C12.27981502 30.13356459 9.98753341 30.1305229 7.69516754 30.12584114 C6.41719126 30.12567879 5.13921498 30.12551644 3.82251215 30.12534916 C1 30 1 30 0 29 C0 19.43 0 9.86 0 0 Z " fill="#243442" transform="translate(301,446)"/>
<path d="M0 0 C0.77081909 0.31814667 1.54163818 0.63629333 2.33581543 0.96408081 C4.81941069 1.99003376 7.30043685 3.02202777 9.78125 4.0546875 C12.95749177 5.37182878 16.13480387 6.68637167 19.3125 8 C20.18846329 8.36219131 21.06442657 8.72438263 21.9669342 9.09754944 C53.15016205 21.9674621 84.49771452 34.43555673 115.83227539 46.9309082 C120.27806711 48.70387989 124.72319056 50.47851816 129.16790581 52.25418663 C130.83619569 52.92026761 132.5047464 53.58569571 134.17357063 54.25043678 C136.47319299 55.16645382 138.7719648 56.08457456 141.07055664 57.00317383 C141.74610596 57.27164124 142.42165527 57.54010864 143.11767578 57.81671143 C146.24209457 59.06778253 149.30297461 60.35899239 152.28125 61.9296875 C152.28125 62.2596875 152.28125 62.5896875 152.28125 62.9296875 C44.70125 62.9296875 -62.87875 62.9296875 -173.71875 62.9296875 C-170.77329765 59.98423515 -169.279662 59.14254964 -165.515625 57.6796875 C-164.41468506 57.24615967 -163.31374512 56.81263184 -162.17944336 56.3659668 C-160.95491455 55.89199463 -159.73038574 55.41802246 -158.46875 54.9296875 C-156.45765879 54.14019632 -154.44785365 53.34748813 -152.43809509 52.55461121 C-150.96500375 51.97354866 -149.49157215 51.39334813 -148.01783752 50.81391907 C-138.88178466 47.21804579 -129.7835655 43.52869218 -120.68341064 39.84313965 C-117.63480093 38.60850097 -114.58576767 37.37491372 -111.53662109 36.14160156 C-95.53269767 29.66773619 -79.53286203 23.18379015 -63.53544617 16.69386292 C-58.71020402 14.73661568 -53.88408844 12.78153514 -49.0574646 10.82769775 C-45.64219558 9.44516593 -42.22713091 8.06212973 -38.81207275 6.67907715 C-37.18762052 6.02135897 -35.56307071 5.36388174 -33.93841553 4.70666504 C-31.69045399 3.79727284 -29.44284812 2.88700673 -27.1953125 1.9765625 C-26.53972351 1.71161987 -25.88413452 1.44667725 -25.2086792 1.17370605 C-21.50724909 -0.31442863 -21.50724909 -0.31442863 -17.87518311 -1.96130371 C-10.97295541 -5.24599653 -6.67415489 -2.79431801 0 0 Z " fill="#FBFBFB" transform="translate(523.71875,363.0703125)"/>
<path d="M0 0 C148.17 0 296.34 0 449 0 C449 2.97 449 5.94 449 9 C300.83 9 152.66 9 0 9 C0 6.03 0 3.06 0 0 Z " fill="#F4F5F6" transform="translate(288,662)"/>
<path d="M0 0 C140.58 0 281.16 0 426 0 C426 2.97 426 5.94 426 9 C285.42 9 144.84 9 0 9 C0 6.03 0 3.06 0 0 Z " fill="#F1F2F2" transform="translate(300,643)"/>
<path d="M0 0 C132.33 0 264.66 0 401 0 C401 2.97 401 5.94 401 9 C268.67 9 136.34 9 0 9 C0 6.03 0 3.06 0 0 Z " fill="#EDEFF0" transform="translate(312,456)"/>
<path d="M0 0 C139.59 0 279.18 0 423 0 C423 9.57 423 19.14 423 29 C421.11061536 30.88938464 417.81324354 30.12552248 415.30483246 30.12584114 C414.59317289 30.12729458 413.88151332 30.12874802 413.14828831 30.13024551 C410.73340024 30.13393161 408.31857426 30.1304071 405.90368652 30.12698364 C404.16699487 30.12813443 402.43030347 30.12972167 400.69361258 30.13171089 C395.89773342 30.13591001 391.101874 30.13381091 386.30599475 30.13072467 C381.14302606 30.12847314 375.9800609 30.13194894 370.8170929 30.13470459 C360.69352474 30.13916395 350.56996397 30.13818509 340.44639552 30.13529195 C332.22274186 30.13303856 323.99909028 30.13272511 315.7754364 30.13381577 C314.60743353 30.133969 313.43943066 30.13412223 312.23603377 30.13428011 C309.86366403 30.13459982 307.49129429 30.13492403 305.11892456 30.1352527 C282.84464671 30.13810798 260.57037297 30.13481972 238.29609579 30.12945233 C219.16109956 30.12498425 200.0261094 30.12576017 180.89111328 30.13037109 C158.69950527 30.13571602 136.50790086 30.13783328 114.31629229 30.13475883 C111.95238272 30.13444026 109.58847316 30.13412589 107.2245636 30.13381577 C106.06130888 30.13366149 104.89805415 30.13350721 103.69954929 30.13334826 C95.48058142 30.13248286 87.26161583 30.13394648 79.04264832 30.13629532 C69.03393132 30.13909261 59.02522217 30.13835656 49.01650608 30.13301457 C43.90459821 30.1303766 38.79270345 30.12937412 33.68079567 30.13266373 C29.00907302 30.13562472 24.33737575 30.13403719 19.66565543 30.12868617 C17.96783245 30.12756114 16.27000735 30.12815505 14.5721857 30.13056196 C12.27981502 30.13356459 9.98753341 30.1305229 7.69516754 30.12584114 C6.41719126 30.12567879 5.13921498 30.12551644 3.82251215 30.12534916 C1 30 1 30 0 29 C0 19.43 0 9.86 0 0 Z M1 1 C1 10.24 1 19.48 1 29 C52.62811044 29.02281874 104.25622023 29.04051285 155.88433472 29.05106533 C161.98123943 29.05231602 168.07814413 29.05361034 174.17504883 29.05493164 C175.388819 29.05519395 176.60258918 29.05545626 177.85314027 29.05572652 C197.49936664 29.06007634 217.14559008 29.06796012 236.79181471 29.0771528 C256.95468856 29.08650845 277.11756088 29.09205967 297.28043681 29.09408849 C309.71927161 29.09545974 322.15809812 29.09978883 334.59693036 29.10791647 C343.12981687 29.11320749 351.6626991 29.11479892 360.19558712 29.11350138 C365.11657581 29.11286169 370.03755004 29.11383374 374.95853615 29.11920547 C379.46993833 29.12409399 383.98131642 29.12430304 388.49271975 29.12089889 C390.11878195 29.12047854 391.74484569 29.1217281 393.37090489 29.12488318 C402.6303584 29.14179465 411.7687635 28.83622995 421 28 C421 19.42 421 10.84 421 2 C417.5115792 0.83719307 414.80109491 0.87584726 411.11841297 0.87695217 C410.41089961 0.87579833 409.70338625 0.87464448 408.97443309 0.87345567 C406.58570009 0.87079287 404.19703346 0.87530843 401.80830383 0.87974548 C400.08567275 0.87930971 398.36304174 0.8784347 396.64041108 0.87715632 C391.89272444 0.8749125 387.1450602 0.87893111 382.39737642 0.88393438 C377.28286194 0.8882403 372.16834879 0.88679235 367.05383301 0.8860321 C358.18792228 0.88550696 349.32201889 0.88865277 340.45611 0.89426994 C327.6373871 0.90238622 314.81866776 0.9050003 301.99994256 0.90625793 C281.20397988 0.90844825 260.40802111 0.91510779 239.61206055 0.92456055 C219.40698262 0.93373519 199.20190576 0.94081577 178.99682617 0.94506836 C177.12964269 0.94546244 177.12964269 0.94546244 175.22473834 0.94586449 C168.98019253 0.9471695 162.73564672 0.94843321 156.49110091 0.94967639 C104.66073121 0.96004838 52.83036585 0.97774032 1 1 Z " fill="#55626D" transform="translate(301,446)"/>
<path d="M0 0 C2.0625 0.4375 2.0625 0.4375 4 1 C4.34365418 13.749736 4.67659519 26.49973406 5 39.25 C5.0237545 40.18626976 5.047509 41.12253952 5.07198334 42.08718109 C5.78699372 70.39565716 6.32829321 98.68092253 6 127 C3.69 127 1.38 127 -1 127 C-1.02332895 110.58891314 -1.04097916 94.17783163 -1.05181217 77.76673222 C-1.05697514 70.14729827 -1.06401784 62.52787461 -1.07543945 54.90844727 C-1.08538628 48.26971173 -1.09185342 41.63098363 -1.09408849 34.99224085 C-1.09539561 31.47495664 -1.09848147 27.95769374 -1.10573006 24.44041634 C-1.11374389 20.52025062 -1.11399114 16.60010601 -1.11352539 12.67993164 C-1.11712067 11.50533386 -1.12071594 10.33073608 -1.12442017 9.12054443 C-1.12235817 7.52820732 -1.12235817 7.52820732 -1.12025452 5.90370178 C-1.12117631 4.97545625 -1.1220981 4.04721071 -1.12304783 3.09083652 C-1 1 -1 1 0 0 Z " fill="#E7E9EB" transform="translate(400,506)"/>
<path d="M0 0 C1.32 0 2.64 0 4 0 C4 41.91 4 83.82 4 127 C1.69 127 -0.62 127 -3 127 C-3.06511934 108.35769179 -2.90884014 89.72538742 -2.59634399 71.08573151 C-2.56197338 69.03101837 -2.52824091 66.9762955 -2.49462891 64.92156982 C-2.22192056 48.32149778 -1.92883183 31.72187316 -1.5 15.125 C-1.48212433 14.37743439 -1.46424866 13.62986877 -1.4458313 12.85964966 C-1.39618614 10.82556996 -1.33899223 8.79167845 -1.28125 6.7578125 C-1.25095703 5.6558252 -1.22066406 4.55383789 -1.18945312 3.41845703 C-1 1 -1 1 0 0 Z " fill="#EAECED" transform="translate(388,506)"/>
<path d="M0 0 C1.32 0 2.64 0 4 0 C4 41.91 4 83.82 4 127 C1.69 127 -0.62 127 -3 127 C-3.14128825 100.85181953 -2.81804557 74.73140985 -2.20043945 48.59057617 C-2.08198682 43.5720461 -1.97217129 38.55336471 -1.86443424 33.53459454 C-1.77953709 29.62539012 -1.69009722 25.71630006 -1.59924126 21.80723 C-1.55671189 19.95201732 -1.51565843 18.09677019 -1.4761219 16.24149132 C-1.42113397 13.69039963 -1.35998858 11.13953093 -1.29711914 8.58862305 C-1.28201294 7.82905304 -1.26690674 7.06948303 -1.25134277 6.28689575 C-1.11426804 1.11426804 -1.11426804 1.11426804 0 0 Z " fill="#ECEEEF" transform="translate(622,506)"/>
<path d="M0 0 C2.475 0.495 2.475 0.495 5 1 C5.84822579 19.64733021 6.22472961 38.29555936 6.56121826 56.95776367 C6.80204988 70.22866433 7.10226202 83.48338332 7.69311523 96.74389648 C8.12325084 106.8287731 8.09100914 116.90809794 8 127 C5.69 127 3.38 127 1 127 C0.31343213 94.76773574 -0.09894918 62.55179837 -0.0625 30.3125 C-0.06164398 29.5498735 -0.06078796 28.78724701 -0.05990601 28.00151062 C-0.04863943 18.66764921 -0.02875156 9.3338252 0 0 Z " fill="#EDEFF0" transform="translate(324,506)"/>
<path d="M0 0 C2.475 0.495 2.475 0.495 5 1 C5.34581595 12.81215812 5.67852818 24.62465442 6 36.4375 C6.0237545 37.31010342 6.047509 38.18270683 6.07198334 39.08175278 C6.86571003 68.39540139 7.28410104 97.67421693 7 127 C5.02 127 3.04 127 1 127 C-0.02627398 97.77302713 -0.08854996 68.55358065 -0.0625 39.3125 C-0.06164398 38.34485214 -0.06078796 37.37720428 -0.05990601 36.38023376 C-0.04839256 24.25347124 -0.02814249 12.1267349 0 0 Z " fill="#EFF1F2" transform="translate(633,506)"/>
<path d="M0 0 C4 1 4 1 5 2 C5.11993681 3.48443273 5.17175309 4.97443127 5.19618225 6.46350098 C5.21438522 7.42791107 5.2325882 8.39232117 5.25134277 9.38595581 C5.26644897 10.4529068 5.28155518 11.51985779 5.29711914 12.61914062 C5.31677231 13.7362442 5.33642548 14.85334778 5.35667419 16.00430298 C5.42087177 19.72155567 5.47805002 23.43888213 5.53515625 27.15625 C5.57816159 29.73401559 5.62157813 32.31177436 5.66539001 34.88952637 C5.75650052 40.30684173 5.84461347 45.72419214 5.92993164 51.14160156 C6.04986968 58.75687239 6.17619696 66.37202708 6.30383885 73.98717213 C6.48421126 84.77327887 6.66157474 95.55943894 6.83227539 106.34570312 C6.85797104 107.92183884 6.85797104 107.92183884 6.88418579 109.52981567 C6.97496454 115.35409717 7.01618996 121.17500794 7 127 C4.69 127 2.38 127 0 127 C0 85.09 0 43.18 0 0 Z " fill="#EEF0F1" transform="translate(558,506)"/>
<path d="M0 0 C4 1 4 1 5 2 C5.16368318 5.14404056 5.26107353 8.26736421 5.31640625 11.4140625 C5.33723267 12.41955139 5.35805908 13.42504028 5.3795166 14.46099854 C5.44673838 17.84891222 5.5051847 21.236905 5.5625 24.625 C5.58367889 25.78662659 5.60485779 26.94825317 5.62667847 28.14508057 C6.21724887 61.09348716 6.09508304 94.04779825 6 127 C4.02 127 2.04 127 0 127 C0 85.09 0 43.18 0 0 Z " fill="#EFF2F3" transform="translate(708,506)"/>
<path d="M0 0 C1.32 0 2.64 0 4 0 C4 41.91 4 83.82 4 127 C1.69 127 -0.62 127 -3 127 C-3.1342958 116.25633628 -2.90649965 105.54597969 -2.52734375 94.80859375 C-2.10514962 82.30182446 -1.86052658 69.79809423 -1.71875 57.28515625 C-1.70919722 56.45669567 -1.69964443 55.62823509 -1.68980217 54.77466965 C-1.60232194 47.11262544 -1.52358195 39.45049748 -1.44775391 31.78833008 C-1.40530944 27.53039382 -1.35815779 23.27253049 -1.30812073 19.01467705 C-1.28168115 16.63643861 -1.26084596 14.25819203 -1.2401123 11.87989807 C-1.22353982 10.44735351 -1.20667079 9.01481234 -1.18945312 7.58227539 C-1.17692505 6.33088272 -1.16439697 5.07949005 -1.15148926 3.79017639 C-1 1 -1 1 0 0 Z " fill="#EEF0F1" transform="translate(313,506)"/>
<path d="M0 0 C1.32 0 2.64 0 4 0 C4 41.91 4 83.82 4 127 C2.02 127 0.04 127 -2 127 C-2.1260246 96.70756421 -1.99524636 66.42429166 -1.59428024 36.13461304 C-1.56240799 33.68041513 -1.53244602 31.2262003 -1.50296021 28.77197266 C-1.45594126 24.89011795 -1.40367468 21.00836946 -1.34712219 17.12664223 C-1.32675664 15.68294759 -1.30800086 14.23922928 -1.29090881 12.79549217 C-1.26704718 10.81892186 -1.23638072 8.84243712 -1.20532227 6.8659668 C-1.18977798 5.7519902 -1.1742337 4.63801361 -1.15821838 3.49028015 C-1 1 -1 1 0 0 Z " fill="#F2F3F4" transform="translate(463,506)"/>
<path d="M0 0 C0.99 0 1.98 0 3 0 C3 41.91 3 83.82 3 127 C0.69 127 -1.62 127 -4 127 C-3.57130239 95.70320571 -2.97810902 64.41560762 -2.06517792 33.12918472 C-1.9998285 30.86906877 -1.9363565 28.60890681 -1.87335205 26.34872437 C-1.77372793 22.78839688 -1.66896221 19.22825851 -1.55992508 15.66820717 C-1.50119486 13.7193372 -1.44688631 11.77033559 -1.39266968 9.82133484 C-1.35590118 8.66841446 -1.31913269 7.51549408 -1.28125 6.32763672 C-1.25095703 5.31756561 -1.22066406 4.30749451 -1.18945312 3.26681519 C-1 1 -1 1 0 0 Z " fill="#F3F4F5" transform="translate(697,506)"/>
<path d="M0 0 C1.32 0.33 2.64 0.66 4 1 C4.92405705 15.24521811 5.31191301 29.47848661 5.5625 43.75 C5.58367889 44.89656067 5.60485779 46.04312134 5.62667847 47.22442627 C6.11056017 73.81570696 6.10610135 100.40537267 6 127 C4.02 127 2.04 127 0 127 C0 85.09 0 43.18 0 0 Z " fill="#F6F7F7" transform="translate(475,506)"/>
<path d="M0 0 C0.99 0 1.98 0 3 0 C3 41.91 3 83.82 3 127 C1.02 127 -0.96 127 -3 127 C-3.07077007 109.48650677 -2.88816776 91.98239585 -2.59634399 74.47144318 C-2.56205028 72.41047272 -2.52829137 70.34949404 -2.49462891 68.28851318 C-2.22594808 51.90231445 -1.94855538 35.51595013 -1.55929565 19.1321106 C-1.51996429 17.46912072 -1.48212745 15.80609478 -1.4458313 14.14303589 C-1.39602554 11.8998844 -1.3398357 9.65699945 -1.28125 7.4140625 C-1.25095703 6.1863916 -1.22066406 4.9587207 -1.18945312 3.69384766 C-1 1 -1 1 0 0 Z " fill="#F7F8F8" transform="translate(547,506)"/>
<path d="M0 0 C0.8510582 -0.0127597 1.70211639 -0.02551941 2.57896423 -0.03866577 C3.9602224 -0.04200424 3.9602224 -0.04200424 5.36938477 -0.04541016 C6.78611229 -0.05539536 6.78611229 -0.05539536 8.23146057 -0.06558228 C10.23127287 -0.07571846 12.23111907 -0.080399 14.23095703 -0.08007812 C17.29524305 -0.08445047 20.35808825 -0.12075743 23.42211914 -0.15869141 C25.36286941 -0.16455945 27.30362654 -0.16852893 29.24438477 -0.17041016 C30.16319931 -0.18478119 31.08201385 -0.19915222 32.02867126 -0.21395874 C38.35313641 -0.16840079 38.35313641 -0.16840079 40.98681641 2.15527344 C42.15096478 4.95936093 41.84633557 6.44624325 40.87329102 9.29052734 C38.87329102 11.29052734 38.87329102 11.29052734 35.87329102 11.54052734 C32.87329102 11.29052734 32.87329102 11.29052734 30.87329102 9.29052734 C30.87329102 7.97052734 30.87329102 6.65052734 30.87329102 5.29052734 C21.96329102 5.29052734 13.05329102 5.29052734 3.87329102 5.29052734 C3.54329102 6.94052734 3.21329102 8.59052734 2.87329102 10.29052734 C-0.50170898 10.91552734 -0.50170898 10.91552734 -4.12670898 11.29052734 C-6.12670898 9.29052734 -6.12670898 9.29052734 -6.37670898 5.79052734 C-6.02198458 0.82438572 -4.64090708 0.04714869 0 0 Z " fill="#F7F8F8" transform="translate(453.126708984375,490.70947265625)"/>
<path d="M0 0 C0.85428589 -0.00630432 1.70857178 -0.01260864 2.58874512 -0.019104 C3.51272095 -0.01505554 4.43669678 -0.01100708 5.38867188 -0.00683594 C6.80895691 -0.00970612 6.80895691 -0.00970612 8.25793457 -0.01263428 C10.26196559 -0.01399667 12.26600542 -0.0102965 14.27001953 -0.00195312 C17.34492741 0.00874559 20.41925101 -0.00184666 23.49414062 -0.01464844 C25.43815234 -0.01332685 27.38216368 -0.01076448 29.32617188 -0.00683594 C30.71213562 -0.01290863 30.71213562 -0.01290863 32.12609863 -0.019104 C33.40752747 -0.00964752 33.40752747 -0.00964752 34.71484375 0 C35.4682605 0.00159119 36.22167725 0.00318237 36.9979248 0.00482178 C38.85742188 0.25878906 38.85742188 0.25878906 40.85742188 2.25878906 C41.10742188 5.75878906 41.10742188 5.75878906 40.85742188 9.25878906 C38.85742188 11.25878906 38.85742188 11.25878906 35.85742188 11.50878906 C32.85742188 11.25878906 32.85742188 11.25878906 30.85742188 9.25878906 C30.85742188 7.93878906 30.85742188 6.61878906 30.85742188 5.25878906 C21.94742188 5.25878906 13.03742187 5.25878906 3.85742188 5.25878906 C3.52742187 6.57878906 3.19742188 7.89878906 2.85742188 9.25878906 C0.85742188 11.25878906 0.85742188 11.25878906 -1.58007812 11.57128906 C-4.14257812 11.25878906 -4.14257812 11.25878906 -6.01757812 10.13378906 C-7.14257812 8.25878906 -7.14257812 8.25878906 -6.95507812 5.19628906 C-5.7277844 0.75915022 -4.36140884 0.00921112 0 0 Z " fill="#F7F8F9" transform="translate(612.142578125,490.7412109375)"/>
<path d="M0 0 C0.83103745 -0.00630432 1.66207489 -0.01260864 2.51829529 -0.019104 C3.86674278 -0.01303131 3.86674278 -0.01303131 5.24243164 -0.00683594 C6.16472061 -0.00874939 7.08700958 -0.01066284 8.0372467 -0.01263428 C9.99000318 -0.01399673 11.94276869 -0.01029611 13.89550781 -0.00195312 C16.88700717 0.0087334 19.87790432 -0.00184012 22.86938477 -0.01464844 C24.76456839 -0.01332661 26.65975163 -0.01076375 28.55493164 -0.00683594 C29.90034279 -0.01290863 29.90034279 -0.01290863 31.27293396 -0.019104 C32.10712357 -0.01279968 32.94131317 -0.00649536 33.80078125 0 C34.53421249 0.00159119 35.26764374 0.00318237 36.02330017 0.00482178 C37.96508789 0.25878906 37.96508789 0.25878906 40.96508789 2.25878906 C41.34008789 5.75878906 41.34008789 5.75878906 40.96508789 9.25878906 C37.74135112 11.40794691 36.69805115 11.64165709 32.96508789 11.25878906 C32.30508789 10.59878906 31.64508789 9.93878906 30.96508789 9.25878906 C30.96508789 7.93878906 30.96508789 6.61878906 30.96508789 5.25878906 C21.72508789 5.25878906 12.48508789 5.25878906 2.96508789 5.25878906 C2.63508789 6.90878906 2.30508789 8.55878906 1.96508789 10.25878906 C0.96508789 11.25878906 0.96508789 11.25878906 -1.40991211 11.50878906 C-4.03491211 11.25878906 -4.03491211 11.25878906 -5.90991211 10.13378906 C-7.03491211 8.25878906 -7.03491211 8.25878906 -6.84741211 5.19628906 C-5.63805339 0.82399217 -4.31184763 0.00936476 0 0 Z " fill="#F9FAFA" transform="translate(537.034912109375,490.7412109375)"/>
<path d="M0 0 C0.83103745 -0.00630432 1.66207489 -0.01260864 2.51829529 -0.019104 C3.86674278 -0.01303131 3.86674278 -0.01303131 5.24243164 -0.00683594 C6.16472061 -0.00874939 7.08700958 -0.01066284 8.0372467 -0.01263428 C9.99000318 -0.01399673 11.94276869 -0.01029611 13.89550781 -0.00195312 C16.88700717 0.0087334 19.87790432 -0.00184012 22.86938477 -0.01464844 C24.76456839 -0.01332661 26.65975163 -0.01076375 28.55493164 -0.00683594 C29.90034279 -0.01290863 29.90034279 -0.01290863 31.27293396 -0.019104 C32.10712357 -0.01279968 32.94131317 -0.00649536 33.80078125 0 C34.53421249 0.00159119 35.26764374 0.00318237 36.02330017 0.00482178 C37.96508789 0.25878906 37.96508789 0.25878906 40.96508789 2.25878906 C41.27758789 5.75878906 41.27758789 5.75878906 40.96508789 9.25878906 C38.96508789 11.25878906 38.96508789 11.25878906 35.96508789 11.50878906 C32.96508789 11.25878906 32.96508789 11.25878906 30.96508789 9.25878906 C30.96508789 7.93878906 30.96508789 6.61878906 30.96508789 5.25878906 C22.05508789 5.25878906 13.14508789 5.25878906 3.96508789 5.25878906 C3.30508789 6.90878906 2.64508789 8.55878906 1.96508789 10.25878906 C0.96508789 11.25878906 0.96508789 11.25878906 -1.47241211 11.44628906 C-4.03491211 11.25878906 -4.03491211 11.25878906 -6.03491211 9.25878906 C-6.28491211 5.75878906 -6.28491211 5.75878906 -6.03491211 2.25878906 C-3.66753845 -0.1085846 -3.2109268 0.0069737 0 0 Z " fill="#F9F9F9" transform="translate(378.034912109375,490.7412109375)"/>
<path d="M0 0 C0.83103745 -0.00953201 1.66207489 -0.01906403 2.51829529 -0.02888489 C3.41726028 -0.02797348 4.31622528 -0.02706207 5.24243164 -0.02612305 C6.16472061 -0.03040817 7.08700958 -0.0346933 8.0372467 -0.03910828 C9.98999205 -0.04485738 11.94275881 -0.04534758 13.89550781 -0.04101562 C16.88717124 -0.03785807 19.87784388 -0.06129909 22.86938477 -0.08666992 C24.76456581 -0.08894305 26.65974951 -0.08964635 28.55493164 -0.08862305 C29.45187241 -0.09783279 30.34881317 -0.10704254 31.27293396 -0.11653137 C32.10712357 -0.11030258 32.94131317 -0.10407379 33.80078125 -0.09765625 C34.53421249 -0.09828568 35.26764374 -0.0989151 36.02330017 -0.0995636 C38.5302156 0.38356975 39.41967305 1.27679934 40.96508789 3.2746582 C41.39848929 6.16400085 41.39034573 7.62558044 39.77758789 10.0871582 C37.35151849 11.67665195 35.81111383 11.63953332 32.96508789 11.2746582 C32.30508789 10.6146582 31.64508789 9.9546582 30.96508789 9.2746582 C30.96508789 7.9546582 30.96508789 6.6346582 30.96508789 5.2746582 C21.72508789 5.2746582 12.48508789 5.2746582 2.96508789 5.2746582 C2.96508789 6.9246582 2.96508789 8.5746582 2.96508789 10.2746582 C-3.42198314 11.60027672 -3.42198314 11.60027672 -6.03491211 10.2121582 C-7.53642981 7.30296766 -6.88742827 5.356832 -6.03491211 2.2746582 C-3.67033153 -0.08992238 -3.20777003 0.02017299 0 0 Z " fill="#F8F8F9" transform="translate(687.034912109375,490.725341796875)"/>
<path d="M0 0 C1.21641174 -0.00934319 1.21641174 -0.00934319 2.45739746 -0.01887512 C3.32932739 -0.00966537 4.20125732 -0.00045563 5.09960938 0.0090332 C6.44762634 0.00828545 6.44762634 0.00828545 7.82287598 0.00752258 C9.72259737 0.0098627 11.62232188 0.01958757 13.52197266 0.03613281 C16.43224774 0.05972438 19.34160674 0.05669345 22.25195312 0.05004883 C24.09701068 0.05562565 25.94206437 0.06273556 27.78710938 0.0715332 C28.65903931 0.0706218 29.53096924 0.06971039 30.42932129 0.06877136 C31.24026245 0.07830338 32.05120361 0.08783539 32.88671875 0.09765625 C33.95569397 0.10456734 33.95569397 0.10456734 35.04626465 0.11161804 C36.94335938 0.37231445 36.94335938 0.37231445 39.94335938 2.37231445 C40.25585938 5.87231445 40.25585938 5.87231445 39.94335938 9.37231445 C37.94335938 11.37231445 37.94335938 11.37231445 34.88085938 11.55981445 C31.94335938 11.37231445 31.94335938 11.37231445 30.94335938 10.37231445 C30.94335938 8.72231445 30.94335938 7.07231445 30.94335938 5.37231445 C21.70335937 5.37231445 12.46335937 5.37231445 2.94335938 5.37231445 C2.61335938 7.02231445 2.28335937 8.67231445 1.94335938 10.37231445 C-1.43164062 10.99731445 -1.43164062 10.99731445 -5.05664062 11.37231445 C-7.05664062 9.37231445 -7.05664062 9.37231445 -7.36914062 6.43481445 C-7.05664062 3.37231445 -7.05664062 3.37231445 -5.79064941 1.70417786 C-3.67912978 0.08235463 -2.63834559 -0.00233023 0 0 Z " fill="#F8F9F9" transform="translate(304.056640625,490.627685546875)"/>
<path d="M0 0 C0 9.57 0 19.14 0 29 C-4.95 29 -9.9 29 -15 29 C-15 28.67 -15 28.34 -15 28 C-10.71 28 -6.42 28 -2 28 C-2 19.42 -2 10.84 -2 2 C-2.99 1.67 -3.98 1.34 -5 1 C-2 0 -2 0 0 0 Z " fill="#43515D" transform="translate(724,446)"/>
<path d="M0 0 C2.4375 0.8125 2.4375 0.8125 5 2 C5.33 2.99 5.66 3.98 6 5 C5.01 5.495 5.01 5.495 4 6 C2.62437146 4.71034824 1.29233607 3.37310707 0 2 C0 1.34 0 0.68 0 0 Z " fill="#2D3E4C" transform="translate(673,503)"/>
</svg>
